<svg width="3399" height="1263" viewBox="0 0 3399 1263" fill="none" xmlns="http://www.w3.org/2000/svg">
<g clip-path="url(#clip0_153_1783)">
<rect width="3399" height="1263" fill="#272727"/>
<path fill-rule="evenodd" clip-rule="evenodd" d="M-39.1181 570.305C-36.2244 570.204 -33.1631 570.205 -29.929 570.313L-29.9892 572.103C-33.1858 571.996 -36.206 571.995 -39.0556 572.095L-39.1181 570.305ZM-57.456 572.789C-54.6866 572.049 -51.6506 571.46 -48.3374 571.034L-48.1091 572.81C-51.3527 573.227 -54.3098 573.802 -56.9938 574.519L-57.456 572.789ZM-20.7849 570.873C-19.2419 571.007 -17.6653 571.163 -16.0547 571.34C-14.4271 571.52 -12.8911 571.776 -11.4445 572.106L-11.8425 573.852C-13.2174 573.539 -14.6858 573.293 -16.251 573.121C-17.8483 572.945 -19.4111 572.791 -20.9398 572.658L-20.7849 570.873ZM-73.8596 581.383C-71.7782 579.335 -69.2069 577.525 -66.1214 575.991L-65.3241 577.595C-68.2616 579.055 -70.6727 580.76 -72.6034 582.66L-73.8596 581.383ZM-2.92561 575.464C-0.123526 577.194 2.05591 579.385 3.65095 581.956L2.12904 582.9C0.684048 580.571 -1.29397 578.576 -3.86624 576.989L-2.92561 575.464ZM-80.6967 598.532C-80.7426 595.269 -80.2305 592.144 -79.0927 589.238L-77.4249 589.891C-78.4688 592.558 -78.9488 595.449 -78.9057 598.507L-80.6967 598.532ZM6.71807 590.693C7.12992 593.542 7.11975 596.6 6.73383 599.807L4.95554 599.593C5.32608 596.514 5.33093 593.616 4.94539 590.949L6.71807 590.693ZM148.49 586.439C147.589 587.64 146.658 588.904 145.694 590.225L144.247 589.169C145.214 587.845 146.15 586.574 147.057 585.364L148.49 586.439ZM140.123 597.898C138.34 600.343 136.458 602.898 134.467 605.527L133.039 604.446C135.022 601.829 136.896 599.283 138.675 596.843L140.123 597.898ZM-75.7593 616.422C-77.2276 613.512 -78.3939 610.616 -79.2238 607.774L-77.5045 607.272C-76.709 609.996 -75.5857 612.79 -74.1602 615.615L-75.7593 616.422ZM4.834 608.71C4.01036 611.473 2.96615 614.306 1.72136 617.18L0.0778235 616.468C1.29743 613.653 2.31627 610.886 3.11749 608.198L4.834 608.71ZM128.617 613.024C126.679 615.429 124.647 617.866 122.514 620.312L121.164 619.135C123.28 616.708 125.297 614.289 127.223 611.9L128.617 613.024ZM-65.3771 631.729C-67.4399 629.31 -69.3248 626.858 -71.0127 624.395L-69.5351 623.382C-67.8851 625.79 -66.039 628.193 -64.0143 630.567L-65.3771 631.729ZM-2.26427 625.292C-3.67547 627.868 -5.22919 630.455 -6.91255 633.035L-8.41255 632.056C-6.753 629.513 -5.22309 626.965 -3.83508 624.432L-2.26427 625.292ZM116.1 627.343C113.943 629.599 111.694 631.843 109.346 634.057L108.117 632.753C110.441 630.563 112.668 628.341 114.805 626.106L116.1 627.343ZM-52.2169 644.664C-54.6261 642.655 -56.9166 640.584 -59.0749 638.469L-57.8212 637.19C-55.698 639.271 -53.4431 641.309 -51.0699 643.288L-52.2169 644.664ZM-12.0907 640.402C-13.8722 642.764 -15.7553 645.104 -17.7299 647.406L-19.0893 646.239C-17.1389 643.966 -15.2794 641.656 -13.5208 639.323L-12.0907 640.402ZM102.229 640.392C99.8279 642.407 97.3334 644.378 94.7407 646.29L93.6776 644.849C96.2387 642.96 98.7038 641.012 101.078 639.02L102.229 640.392ZM-37.218 655.376C-39.8681 653.763 -42.4355 652.067 -44.9091 650.302L-43.8687 648.844C-41.4305 650.584 -38.8995 652.256 -36.2869 653.846L-37.218 655.376ZM-28.6183 658.8C-29.1595 659.308 -29.705 659.813 -30.2547 660.314L-31.4613 658.991C-29.2643 656.988 -27.134 654.921 -25.0796 652.803L-23.7941 654.051C-25.2178 655.518 -26.6777 656.962 -28.1708 658.377C-25.5447 659.717 -22.8556 660.969 -20.1134 662.122L-20.8075 663.773C-23.656 662.575 -26.4471 661.273 -29.1705 659.878L-28.6183 658.8ZM86.8809 651.693C84.2357 653.382 81.4977 655.004 78.6625 656.546L77.8071 654.972C80.604 653.452 83.3059 651.851 85.9169 650.183L86.8809 651.693ZM-135.023 670.869C-136.09 669.8 -137.146 668.679 -138.19 667.505L-136.851 666.315C-135.83 667.463 -134.798 668.559 -133.755 669.603L-135.023 670.869ZM70.1291 660.792C67.2783 662.084 64.3379 663.292 61.3042 664.405L60.6871 662.724C63.6787 661.626 66.5785 660.435 69.39 659.161L70.1291 660.792ZM-37.096 666.165C-39.4446 668.046 -41.8523 669.848 -44.31 671.556L-45.3321 670.085C-42.909 668.402 -40.5338 666.624 -38.2157 664.767L-37.096 666.165ZM-3.28976 669.546C-6.28833 668.826 -9.25083 667.978 -12.1671 667.014L-11.6051 665.314C-8.7346 666.262 -5.82011 667.097 -2.87165 667.804L-3.28976 669.546ZM52.2265 667.364C49.2268 668.221 46.1434 668.987 42.9732 669.652L42.6055 667.899C45.7336 667.243 48.7755 666.488 51.7342 665.642L52.2265 667.364ZM14.9667 672.217C11.8834 672.06 8.81614 671.752 5.77471 671.303L6.03591 669.531C9.0229 669.972 12.0334 670.275 15.0576 670.428L14.9667 672.217ZM-120.707 681.845C-123.265 680.414 -125.783 678.752 -128.251 676.847L-127.157 675.429C-124.756 677.282 -122.312 678.895 -119.833 680.282L-120.707 681.845ZM33.578 671.284C32.0142 671.501 30.4309 671.694 28.8278 671.861C27.2872 672.023 25.7468 672.142 24.2079 672.22L24.1164 670.432C25.6241 670.355 27.1328 670.238 28.6414 670.08C30.2248 669.914 31.7882 669.724 33.3322 669.51L33.578 671.284ZM-51.8931 676.424C-54.5025 677.963 -57.1551 679.387 -59.8413 680.683L-60.6192 679.069C-57.9803 677.797 -55.3716 676.396 -52.8029 674.881L-51.8931 676.424ZM-103.732 688.019C-106.673 687.469 -109.591 686.678 -112.475 685.627L-111.862 683.944C-109.072 684.961 -106.249 685.726 -103.403 686.258L-103.732 688.019ZM-68.1431 684.22C-70.9962 685.275 -73.8756 686.173 -76.7701 686.895L-77.2036 685.157C-74.3766 684.452 -71.5598 683.574 -68.7642 682.54L-68.1431 684.22ZM-85.6624 688.537C-88.6795 688.895 -91.701 689.044 -94.7141 688.965L-94.667 687.174C-91.7446 687.251 -88.8093 687.107 -85.8731 686.759L-85.6624 688.537Z" fill="#595959"/>
<g clip-path="url(#clip1_153_1783)">
<path d="M233.246 428.954L233.251 428.965L233.256 428.976C233.384 429.233 233.403 429.458 233.351 429.652C233.299 429.848 233.162 430.063 232.887 430.272C209.824 446.233 186.329 473.816 184.047 503.422L184.032 503.609L184.145 503.76C184.637 504.419 184.968 505.08 185.318 505.783L185.324 505.795L185.331 505.807C185.581 506.247 185.508 506.603 185.319 506.861C185.11 507.146 184.737 507.335 184.371 507.335H183.871V507.835C183.871 507.845 183.87 507.852 183.869 507.857C183.864 507.858 183.857 507.859 183.848 507.859C183.839 507.859 183.832 507.858 183.826 507.857C183.826 507.852 183.825 507.845 183.825 507.835V507.834V507.833V507.832V507.83V507.829V507.828V507.827V507.826V507.825V507.824V507.823V507.822V507.821V507.82V507.819V507.818V507.817V507.816V507.815V507.814V507.813V507.812V507.811V507.81V507.809V507.808V507.807V507.806V507.805V507.804V507.803V507.802V507.801V507.8V507.799V507.798V507.797V507.796V507.795V507.794V507.793V507.792V507.791V507.789V507.788V507.787V507.786V507.785V507.784V507.783V507.782V507.781V507.78V507.779V507.778V507.777V507.776V507.775V507.774V507.773V507.772V507.771V507.77V507.769V507.768V507.767V507.766V507.765V507.764V507.763V507.762V507.761V507.76V507.759V507.758V507.757V507.756V507.755V507.754V507.753V507.752V507.751V507.75V507.748V507.747V507.746V507.745V507.744V507.743V507.742V507.741V507.74V507.739V507.738V507.737V507.736V507.735V507.734V507.733V507.732V507.731V507.73V507.729V507.728V507.727V507.726V507.725V507.724V507.723V507.722V507.721V507.72V507.719V507.718V507.717V507.716V507.715V507.714V507.713V507.712V507.711V507.71V507.708V507.707V507.706V507.705V507.704V507.703V507.702V507.701V507.7V507.699V507.698V507.697V507.696V507.695V507.694V507.693V507.692V507.691V507.69V507.689V507.688V507.687V507.686V507.685V507.684V507.683V507.682V507.681V507.68V507.679V507.678V507.677V507.676V507.675V507.674V507.673V507.672V507.671V507.67V507.669V507.667V507.666V507.665V507.664V507.663V507.662V507.661V507.66V507.659V507.658V507.657V507.656V507.655V507.654V507.653V507.652V507.651V507.65V507.649V507.648V507.647V507.646V507.645V507.644V507.643V507.642V507.641V507.64V507.639V507.638V507.637V507.636V507.635V507.634V507.633V507.632V507.631V507.63V507.629V507.628V507.626V507.625V507.624V507.623V507.622V507.621V507.62V507.619V507.618V507.617V507.616V507.615V507.614V507.613V507.612V507.611V507.61V507.609V507.608V507.607V507.606V507.605V507.604V507.603V507.602V507.601V507.6V507.599V507.598V507.597V507.596V507.595V507.594V507.593V507.592V507.591V507.59V507.589V507.588V507.587V507.585V507.584V507.583V507.582V507.581V507.58V507.579V507.578V507.577V507.576V507.575V507.574V507.573V507.572V507.571V507.57V507.569V507.568V507.567V507.566V507.565V507.564V507.563V507.562V507.561V507.56V507.559V507.558V507.557V507.556V507.555V507.554V507.553V507.552V507.551V507.55V507.549V507.548V507.547V507.545V507.544V507.543V507.542V507.541V507.54V507.539V507.538V507.537V507.536V507.535V507.534V507.533V507.532V507.531V507.53V507.529V507.528V507.527V507.526V507.525V507.524V507.523V507.522V507.521V507.52V507.519V507.518V507.517V507.516V507.515V507.514V507.513V507.512V507.511V507.51V507.509V507.508V507.507V507.506V507.504V507.503V507.502V507.501V507.5V507.499V507.498V507.497V507.496V507.495V507.494V507.493V507.492V507.491V507.49V507.489V507.488V507.487V507.486V507.485V507.484V507.483V507.482V507.481V507.48V507.479V507.478V507.477V507.476V507.475V507.474V507.473V507.472V507.471V507.47V507.469V507.468V507.467V507.466V507.465V507.463V507.462V507.461V507.46V507.459V507.458V507.457V507.456V507.455V507.454V507.453V507.452V507.451V507.45V507.449V507.448V507.447V507.446V507.445V507.444V507.443V507.442V507.441V507.44V507.439V507.438V507.437V507.436V507.435V507.434V507.433V507.432V507.431V507.43V507.429V507.428V507.427V507.426V507.425V507.424V507.422V507.421V507.42V507.419V507.418V507.417V507.416V507.415V507.414V507.413V507.412V507.411V507.41V507.409V507.408V507.407V507.406V507.405V507.404V507.403V507.402V507.401V507.4V507.399V507.398V507.397V507.396V507.395V507.394V507.393V507.392V507.391V507.39V507.389V507.388V507.387V507.386V507.385V507.384V507.382V507.381V507.38V507.379V507.378V507.377V507.376V507.375V507.374V507.373V507.372V507.371V507.37V507.369V507.368V507.367V507.366V507.365V507.364V507.363V507.362V507.361V507.36V507.359V507.358V507.357V507.356V507.355V507.354V507.353V507.352V507.351V507.35V507.349V507.348V507.347V507.346V507.345V507.344V507.343V507.341V507.34V507.339V507.338V507.337V507.336V507.335V507.334V507.333V507.332V507.331V507.33V507.329V507.328V507.327V507.326V507.325V507.324V507.323V507.322V507.321V507.32V507.319V507.318V507.317V507.316V507.315V507.314V507.313V507.312V507.311V507.31C183.825 507.174 183.789 507.053 183.727 506.949C183.702 506.908 183.675 506.872 183.651 506.844V506.834L183.591 506.723C182.807 505.261 181.903 503.751 180.983 502.213C180.821 501.943 180.659 501.672 180.497 501.4C179.408 499.575 178.316 497.708 177.366 495.802C175.465 491.985 174.163 488.066 174.583 484.096C175.794 474.028 180.297 462.721 184.137 453.261C191.502 435.263 204.485 422.608 218.124 409.314C219.238 408.228 220.356 407.138 221.477 406.04C221.714 405.874 222.095 405.773 222.458 405.806C222.833 405.84 223.05 405.997 223.129 406.193L223.132 406.201L223.135 406.209C224.792 409.972 226.492 413.779 228.192 417.584L228.192 417.584L228.192 417.584C229.892 421.39 231.591 425.194 233.246 428.954Z" stroke="#595959"/>
<path d="M293.843 538.627C290.182 538.277 287.393 538.452 283.732 538.977C280.595 539.327 278.154 539.677 276.237 540.027C278.852 534.778 280.943 529.179 283.035 523.756C283.732 522.006 281.989 520.082 280.246 520.256C251.657 521.131 223.069 522.006 194.48 522.706C194.655 522.356 194.655 522.006 194.48 521.656C187.508 508.359 207.031 490.513 216.445 484.04C226.207 477.391 242.419 467.244 254.447 467.769C255.493 467.769 256.364 466.369 255.667 465.494C228.299 424.204 218.711 373.99 191.866 332.525C191.517 332 190.994 332.175 190.82 332.525C190.471 332 189.948 332 189.425 332.525C169.03 357.194 159.965 394.635 159.791 426.303C159.616 426.653 159.616 427.003 159.442 427.178C159.442 427.353 159.616 427.528 159.791 427.353C159.791 427.703 159.791 428.053 159.791 428.577C159.965 446.423 163.103 464.444 168.855 481.24C173.736 495.587 180.36 511.334 190.994 522.531C168.158 523.231 145.322 523.931 122.486 524.456C120.917 524.456 119.523 526.38 120.568 527.78C123.532 531.979 126.321 536.528 129.459 540.727C121.789 543.876 114.816 544.751 110.458 536.178C110.109 535.303 108.715 536.003 109.063 536.703C112.724 548.25 125.972 546.151 134.514 541.777C139.744 538.977 144.973 534.428 151.075 534.253C158.745 533.903 163.626 539.327 169.901 542.651C170.075 542.651 170.075 542.651 170.25 542.826C167.286 543.001 164.672 543.876 162.405 545.976C162.231 546.151 162.405 546.325 162.58 546.325C170.075 543.876 175.654 546.5 182.801 548.425C187.508 549.65 192.389 550.699 196.572 547.725C197.444 547.025 197.269 545.451 196.049 545.451C192.214 545.276 188.379 544.751 184.718 544.226C186.287 543.876 187.856 543.351 189.425 542.826C192.563 541.602 195.352 539.327 198.49 538.102C211.215 533.378 210.518 538.627 218.711 542.476C219.408 542.826 220.105 543.001 220.803 543.351C220.28 543.351 219.583 543.351 219.06 543.351C217.142 543.526 211.738 543.876 213.133 547.025C213.307 547.375 213.83 547.2 213.83 546.85C213.656 544.051 232.482 548.95 235.097 549.125C239.281 549.3 243.116 548.6 245.731 545.101C246.254 544.226 245.382 543.176 244.51 543.351C240.152 544.926 236.492 545.626 231.959 544.926C229.693 544.576 227.427 544.051 225.161 543.701C228.473 543.701 231.959 542.476 235.271 540.902C243.639 537.053 249.74 532.679 258.63 537.927C261.245 539.502 262.988 541.427 266.126 542.301C266.823 542.476 267.346 542.651 268.044 542.826V543.001C268.218 543.001 268.392 543.001 268.567 543.001C276.76 544.401 285.824 540.902 293.843 540.902C295.586 541.252 295.412 538.802 293.843 538.627ZM232.134 471.618C223.418 475.642 214.876 480.191 207.729 486.664C200.407 492.963 189.599 506.435 190.994 517.632C188.902 514.483 186.985 511.159 185.067 507.834C189.251 476.517 206.683 447.298 233.877 430.852C239.106 442.399 244.859 453.772 251.832 464.444C244.859 465.144 238.235 468.643 232.134 471.618ZM223.069 405.483C226.381 413.881 229.867 422.104 233.528 430.327C206.857 448.523 188.902 475.817 184.893 507.834C181.232 501.361 178.094 494.712 175.305 488.064C179.314 455.171 195.526 424.378 223.069 405.483ZM166.415 459.545C170.25 426.478 184.021 396.735 209.646 374.515C210.169 373.99 209.472 373.29 208.775 373.64C184.718 394.635 168.158 424.903 165.717 457.096C163.974 447.823 162.928 438.375 162.754 428.752C162.754 425.253 162.754 421.579 162.928 418.08C171.296 394.81 181.406 373.115 200.233 355.969C200.582 355.619 200.059 354.919 199.536 355.269C181.058 370.316 170.598 393.061 162.928 415.63C163.8 403.558 165.892 391.661 169.378 379.939C174.433 363.317 182.975 349.496 190.994 334.449C202.325 357.194 212.261 380.114 221.674 403.733C221.849 404.083 222.023 404.608 222.197 404.958H222.023C196.224 425.078 178.094 453.947 175.131 487.539C171.296 478.441 168.507 469.168 166.415 459.545ZM260.722 536.178C255.667 533.728 253.924 531.454 247.648 532.504C237.712 534.253 230.042 544.576 219.06 539.502C213.307 536.878 210.518 532.504 203.545 533.553C195.003 534.778 188.902 542.301 179.837 542.301C170.424 542.301 165.892 533.378 157.524 531.454C150.726 529.879 142.01 535.128 133.817 539.152C131.551 535.653 129.11 532.329 126.844 529.179C176.7 528.13 226.381 527.08 276.237 525.855C274.145 530.579 271.879 534.953 269.787 539.677C267.172 538.977 264.557 537.927 260.722 536.178Z" fill="#595959"/>
<path d="M221.326 533.729C222.023 534.953 222.721 536.528 223.941 537.403C224.29 537.578 224.638 537.403 224.638 537.053C224.29 535.653 223.244 534.428 222.372 533.204C221.849 532.679 220.803 533.204 221.326 533.729Z" fill="#595959"/>
<path d="M226.554 531.629C226.205 531.279 225.856 531.804 226.031 532.154C226.728 533.029 227.251 533.904 228.123 534.428C228.471 534.603 228.994 534.253 228.82 533.729C228.297 533.029 227.425 532.329 226.554 531.629Z" fill="#595959"/>
</g>
<g clip-path="url(#clip2_153_1783)">
<path d="M3355.04 1124.81C3355.28 1124.81 3355.52 1124.81 3355.76 1124.57C3371.31 1116.94 3383.51 1104.55 3396.42 1093.35C3409.34 1081.91 3426.32 1070.71 3436.37 1056.65C3438.52 1057.6 3439.96 1054.26 3438.04 1052.83C3410.3 1033.29 3378.72 1019.23 3350.5 1000.4C3321.56 981.334 3298.83 957.74 3275.15 932.715C3273.96 931.285 3272.04 932.239 3271.8 933.669C3271.57 933.669 3271.33 933.43 3271.09 933.669C3244.06 947.015 3218.94 963.221 3190.96 974.899C3190 975.376 3189.52 976.568 3190 977.521C3227.55 1042.35 3282.81 1097.16 3352.89 1126C3354.09 1126.48 3354.8 1125.76 3355.04 1124.81ZM3234.25 1033.77C3226.6 1024.71 3219.18 1015.18 3212.48 1005.41C3208.42 999.447 3204.35 993.251 3200.52 987.054C3195.74 979.189 3194.78 978.951 3202.68 973.946C3214.4 966.558 3228.51 961.791 3240.71 955.118C3251.47 949.16 3262.71 942.963 3272.28 935.098V935.337C3290.94 962.268 3318.45 984.909 3345.48 1003.02C3373.46 1021.85 3403.84 1041.15 3434.46 1055.69C3420.82 1063.08 3409.1 1076.67 3397.62 1086.91C3383.75 1099.31 3370.59 1112.89 3354.09 1121.47C3353.61 1121.71 3353.37 1121.95 3353.37 1122.19C3306.97 1103.12 3266.78 1072.14 3234.25 1033.77Z" fill="#595959"/>
<path d="M3279.46 956.786C3310.55 996.349 3359.11 1026.62 3403.84 1048.78C3404.56 1049.02 3404.79 1048.07 3404.32 1047.59C3381.11 1036.15 3358.87 1022.8 3338.06 1007.55C3317.01 992.059 3299.31 973.469 3279.94 956.548C3279.46 956.071 3279.22 956.548 3279.46 956.786Z" fill="#595959"/>
<path d="M3407.9 1066.89C3407.9 1066.66 3407.9 1066.66 3407.9 1066.89C3390.68 1076.9 3376.09 1091.92 3361.02 1105.03C3362.22 1100.98 3350.74 1101.21 3348.82 1101.45C3346.43 1101.69 3335.91 1102.64 3337.58 1107.17C3337.82 1107.41 3338.3 1107.41 3338.3 1107.17C3339.73 1101.69 3361.02 1101.45 3360.31 1105.27C3360.31 1105.5 3360.54 1105.5 3360.54 1105.5C3360.31 1105.98 3361.02 1106.7 3361.5 1106.22C3377.05 1092.63 3392.12 1079.53 3407.9 1066.89Z" fill="#595959"/>
<path d="M3267.02 1058.08C3246.69 1039.49 3231.38 1018.28 3215.36 996.349C3215.12 996.11 3214.64 996.349 3214.88 996.587C3239.75 1042.82 3289.03 1085.72 3337.34 1106.22C3312.23 1091.92 3288.31 1077.62 3267.02 1058.08Z" fill="#595959"/>
<path d="M3216.07 978.951C3231.86 972.516 3247.41 964.175 3260.8 953.688C3261.04 956.071 3263.91 958.216 3266.3 958.931C3270.37 960.361 3276.59 960.6 3278.98 956.31C3279.46 955.595 3278.5 954.88 3277.79 955.356C3275.39 957.501 3273 958.455 3269.65 957.978C3266.78 957.501 3261.52 956.071 3262 952.496C3262 952.496 3262 952.496 3262.24 952.496V952.258C3262.24 951.782 3262.48 951.543 3262.72 951.067C3262.96 950.828 3262.48 950.352 3262.24 950.59C3261.52 951.305 3261.04 952.258 3261.04 952.973C3246.21 962.268 3231.62 970.848 3215.6 977.998C3215.12 977.521 3214.4 977.044 3213.68 976.806C3213.44 976.806 3213.2 977.044 3213.44 977.044C3218.71 981.573 3220.14 989.438 3214.88 994.681C3214.16 995.396 3215.12 996.349 3215.83 995.872C3219.9 991.582 3220.38 983.241 3216.07 978.951Z" fill="#595959"/>
<path d="M3305.29 1059.51C3313.42 1057.12 3315.34 1049.73 3311.03 1042.82C3310.08 1041.15 3308.64 1039.96 3307.44 1038.53C3312.47 1034.24 3317.49 1029.48 3322.04 1024.71C3322.27 1025.19 3322.27 1025.42 3322.51 1025.66C3322.51 1027.09 3318.93 1031.86 3318.21 1034.24C3318.21 1034.72 3318.21 1034.96 3318.69 1035.2C3326.34 1038.06 3328.97 1025.66 3327.06 1020.42C3327.06 1020.18 3326.82 1019.94 3326.82 1019.71C3327.78 1018.51 3328.97 1017.32 3329.93 1015.89C3330.41 1015.18 3329.93 1014.22 3329.21 1013.99C3328.49 1013.75 3327.78 1013.27 3327.06 1013.03C3326.58 1012.79 3326.34 1013.27 3326.34 1013.75C3326.34 1013.75 3325.38 1014.46 3323.95 1015.89C3322.99 1014.94 3322.04 1013.99 3320.84 1013.27C3322.27 1011.84 3323.47 1010.17 3324.67 1008.27C3324.91 1008.03 3324.67 1007.79 3324.43 1007.79C3321.56 1008.5 3318.69 1009.7 3316.06 1011.13C3312.23 1010.17 3308.16 1010.17 3304.34 1011.36C3295.72 1013.99 3292.85 1020.66 3294.77 1028.05C3290.7 1031.38 3286.63 1034.96 3282.81 1038.77C3282.33 1036.15 3282.57 1033.29 3284.24 1031.14C3285.44 1029.48 3283.53 1027.81 3281.85 1028.52C3276.59 1030.91 3277.31 1037.1 3279.22 1042.58C3277.55 1044.73 3275.87 1047.11 3274.68 1049.5C3274.2 1050.45 3275.39 1051.4 3276.35 1050.93C3278.26 1049.97 3279.94 1048.78 3281.61 1047.59C3282.09 1048.54 3282.57 1049.26 3283.05 1049.97C3283.29 1050.45 3283.53 1050.69 3284 1051.16C3282.81 1052.12 3281.61 1053.07 3280.42 1054.02C3277.78 1055.93 3281.13 1059.74 3283.76 1057.84C3284.96 1056.88 3286.16 1055.93 3287.59 1054.98C3292.14 1059.03 3298.59 1061.41 3305.29 1059.51ZM3319.64 1019.94C3314.86 1024.71 3309.12 1030.43 3308.4 1031.14C3307.21 1032.34 3305.77 1033.77 3304.34 1034.96C3302.9 1033.05 3301.7 1031.38 3300.99 1029.71C3305.77 1025.42 3311.75 1021.61 3316.77 1017.32C3317.73 1017.8 3318.69 1018.75 3319.64 1019.94ZM3308.4 1015.89H3308.64C3306.01 1017.8 3303.62 1019.94 3301.23 1022.09C3301.23 1021.85 3301.23 1021.85 3301.46 1021.61C3302.18 1017.56 3304.34 1015.65 3308.4 1015.89ZM3284.96 1044.97C3289.03 1041.39 3292.85 1037.34 3296.92 1033.53C3297.64 1034.72 3299.07 1036.39 3300.51 1038.29C3296.2 1041.87 3291.9 1045.21 3287.59 1048.3C3286.63 1047.35 3285.68 1046.16 3284.96 1044.97ZM3303.38 1042.11C3306.49 1046.64 3308.88 1051.4 3305.05 1053.79C3300.99 1056.65 3295.72 1055.22 3291.18 1051.88C3295.25 1048.54 3299.31 1045.44 3303.38 1042.11Z" fill="#595959"/>
</g>
</g>
<defs>
<clipPath id="clip0_153_1783">
<rect width="3399" height="1263" fill="white"/>
</clipPath>
<clipPath id="clip1_153_1783">
<rect width="186" height="218" fill="white" transform="translate(109.062 332)"/>
</clipPath>
<clipPath id="clip2_153_1783">
<rect width="249" height="194" fill="white" transform="translate(3190 932)"/>
</clipPath>
</defs>
</svg>
