<svg width="3399" height="1912" viewBox="0 0 3399 1912" fill="none" xmlns="http://www.w3.org/2000/svg">
<g clip-path="url(#clip0_151_1759)">
<rect width="3399" height="1912" fill="white"/>
<path d="M-24.5652 333.81C-19.6492 451.254 204.87 396.296 147.272 337.633C48.2498 236.78 36.1881 402.152 116.364 454.736C180.504 496.802 245.199 473.686 279.4 465.226" stroke="#817964" stroke-width="2" stroke-dasharray="10 10"/>
<g clip-path="url(#clip1_151_1759)">
<path d="M430.102 357.693C429.9 351.636 432.664 347.195 438.265 344.739C442.997 342.405 453.072 338.974 458.014 341.46C458.508 341.833 459.001 342.205 459.494 342.577C467.416 344.826 479.184 363.031 481.637 366.746C484.089 370.462 485.31 372.937 480.949 375.396C473.102 379.576 460.819 379.786 452.131 380.379C445.924 380.978 440.215 381.332 435.912 376.375C431.73 371.666 430.054 363.874 430.102 357.693Z" fill="#FBB03B"/>
<path d="M391.149 373.523C390.699 367.588 390.61 363.014 396.216 359.941C401.573 356.99 412.893 352.945 418.573 356.299L418.7 355.929L419.325 355.313C419.701 354.819 420.942 354.823 421.435 355.195C424.395 357.429 424.742 360.644 425.832 364.108C427.645 370.294 429.458 376.479 431.022 382.788C431.383 384.149 430.255 385.628 428.888 385.995C419.321 387.944 408.138 390.383 398.346 389.365C390.541 387.983 391.722 379.705 391.149 373.523Z" fill="#FBB03B"/>
<path d="M357.857 395.796C357.393 391.716 358.042 388.009 358.568 384.056C359.095 380.102 359.002 376.146 361.384 372.816C361.76 372.323 362.009 372.2 362.381 372.325C365.266 368.131 372.474 366.421 377.07 365.693C381.416 365.088 383.893 365.714 384.352 370.412C384.695 374.245 384.661 378.571 384.755 382.527C384.858 385.246 385.088 387.595 382.842 389.319C380.595 391.043 376.991 391.898 374.379 392.879C369.901 394.472 365.545 396.313 361.066 397.907C359.948 398.151 358.092 397.527 357.857 395.796Z" fill="#FBB03B"/>
<path d="M361.195 445.248C363.066 444.018 365.429 443.159 367.656 443.908C368.399 444.157 368.892 444.529 369.634 444.779C370.255 444.781 370.748 445.153 371.49 445.402C375.075 447.02 376.907 450.733 376.508 454.317C375.44 464.078 362.283 465.028 357.754 457.104C354.936 452.646 356.346 446.717 361.195 445.248Z" fill="#817964"/>
<path d="M324.667 436.487C323.221 431.044 320.783 425.475 319.835 419.786C317.703 406.678 324.447 400.888 336.87 398.453C344.699 396.746 353.162 393.186 355.221 383.551C355.733 381.451 353.906 377.12 354.297 374.773C354.706 369.953 356.727 365.262 360.228 361.688C365.477 356.636 373.672 355.671 380.509 353.838C393.187 350.661 405.864 347.485 418.542 344.309C432.338 340.889 446.275 335.245 459.384 340.475C459.633 340.353 460.005 340.477 460.254 340.354C461.123 340.233 461.861 341.101 462.227 341.843C463.091 342.34 463.834 342.59 464.449 343.21C470.989 347.679 477.647 353.014 482.434 359.579C485.135 363.172 486.338 368.119 490.416 370.109C495.359 372.596 502.699 369.899 508.163 369.05C523.19 366.869 543.443 362.727 557.402 370.308C566.296 375.155 572.041 386.173 568.619 395.557C570.109 395.438 571.349 395.442 572.463 395.816C574.817 396.194 575.432 396.814 577.029 398.796C579.731 402.389 582.418 407.835 584.743 411.921C585.476 413.406 585.213 415.383 583.963 416.616C579.714 420.558 572.394 420.784 567.173 422.128C559.716 423.96 552.01 425.915 544.313 426.634C543.444 426.755 542.579 426.258 542.086 425.885C542.086 425.885 542.208 426.133 541.959 426.256C541.126 437.749 532.352 449.465 520.186 450.541C509.511 451.498 500.011 444.795 494.251 435.631C493.617 437.484 491.624 438.467 489.514 438.584C475.831 443.487 460.931 445.297 446.397 447.85C442.173 448.702 408.872 455.896 395.09 457.462C395.085 458.08 395.207 458.328 395.203 458.946C395.967 472.421 384.003 479.554 371.828 481.867C360.151 483.933 351.262 478.468 346.489 470.049C346 469.059 345.263 468.191 344.774 467.201C342.406 468.677 339.427 468.916 337.707 466.686C337.458 466.808 337.458 466.808 337.209 466.931C335.588 468.039 333.849 468.281 332.12 467.287C328.662 465.299 328.179 463.691 327.216 459.856C325.408 453.052 326.72 443.786 324.667 436.487ZM360.935 382.579C360.521 388.017 360.365 392.095 358.48 395.18C365.059 394.705 372.032 391.265 377.38 389.55C379.743 388.692 382.224 388.699 383.855 386.356C385.486 384.012 384.509 382.031 384.406 379.312C383.697 374.736 383.237 370.038 383.148 365.464C379.925 365.207 375.813 367.544 372.951 368.648C370.588 369.506 367.853 370.239 365.856 371.84C365.358 372.086 364.738 372.084 364.615 371.837C362.36 374.796 361.34 378.378 360.935 382.579ZM464.665 347.413C462.198 345.552 459.727 344.308 457.251 343.683C450.921 344.035 443.845 344.755 438.742 346.965C429.781 350.77 431.608 355.102 432.913 362.769C433.617 367.963 434.077 372.661 438.268 376.135C444.681 380.974 459.102 376.938 467.673 375.48C472.889 374.754 477.86 373.533 483.198 373.054C478.308 363.769 472.68 353.617 464.665 347.413ZM527.513 369.354C514.229 370.674 500.922 375.085 488.122 378.013C487.004 378.257 485.89 377.883 485.152 377.016C473.955 381.308 460.676 382.011 449.38 382.966C440.443 383.681 436.35 383.545 433.565 374.761C431.747 369.193 427.53 353.112 431.045 347.684C431.797 346.697 432.671 345.958 434.043 344.973C430.312 346.198 426.581 347.423 423.099 348.525C413.401 351.463 403.58 354.153 394.13 356.968C385.179 359.537 375.485 361.857 368.868 367.276C369.738 367.155 370.236 366.909 370.983 366.541C375.212 365.07 380.066 362.983 384.52 364.479C384.892 364.604 385.014 364.852 384.765 364.975C386.333 370.665 389.363 379.945 388.944 386C388.412 390.572 383.939 391.547 380.208 392.772C374.861 394.487 362.652 401.125 354.848 399.742C352.977 400.973 350.736 402.079 348.123 403.06C345.76 403.918 343.401 404.158 340.915 404.769C331.094 407.459 327.086 412.515 325.886 423.265C325.745 425.489 328.267 436.251 330.554 445.281C331.672 445.037 332.913 445.04 334.153 445.044C335.022 444.923 336.014 445.05 336.634 445.051C338.966 432.203 347.115 421.103 361.893 419.046C378.908 416.501 392.834 428.408 395.317 444.113C423.779 437.153 452.123 429.326 481.429 425.334C479.509 417.047 478.584 408.268 482.861 400.617C488.148 390.621 500.098 385.342 510.896 384.632C521.445 384.045 531.96 387.785 539.468 395.471C540.821 396.958 542.296 398.693 543.644 400.798C548.118 399.822 552.713 399.094 557.436 397.996C559.301 397.384 562.036 396.65 564.644 396.287C559.322 378.596 548.244 367.438 527.513 369.354ZM508.945 396.369C513.784 396.136 518.737 397.387 523.059 399.872C524.549 399.752 525.911 400.004 527.396 400.503C523.2 397.647 518.126 396.149 512.544 396.132C511.303 396.128 510.063 396.125 508.945 396.369ZM561.023 415.311C564.505 414.209 567.987 413.107 571.591 412.253C572.959 411.886 574.575 411.396 575.942 411.03C579.913 410.918 580.172 409.559 576.972 406.212C575.018 402.251 575.53 400.151 570.93 401.497C567.824 402.106 564.713 403.333 561.73 404.189C557.007 405.288 552.158 406.756 547.435 407.855C548.769 411.814 549.483 415.772 547.965 419.599C552.072 417.881 556.423 416.657 561.023 415.311ZM526.719 439.931C526.968 439.808 526.968 439.808 527.095 439.437C519.252 442.999 511.955 440.134 506.538 434.803C505.303 434.181 504.067 433.559 502.958 432.567C494.948 425.745 495.757 417.342 501.373 413.033C502.881 410.442 505.377 408.595 509.23 407.618C517.185 405.54 521.498 409.261 522.822 414.456C524.053 415.696 525.157 417.306 525.763 419.162C529.882 431.906 518.416 438.793 508.394 435.426C512.341 438.405 517.416 439.903 522.26 439.052C527.725 438.203 531.226 434.629 533.12 430.308C534.384 427.222 534.657 424.009 534.437 420.424C533.381 412.634 528.823 408.417 524.149 403.336C513.286 396.382 497.028 397.322 492.196 412.635C486.226 430.663 509.482 455.206 526.719 439.931ZM439.354 444.244C454.386 441.446 469.427 437.412 484.694 436.345C484.327 435.602 484.083 435.107 483.966 434.241C482.993 431.643 482.148 428.674 481.303 425.705C452.362 430.439 423.525 437.893 395.059 445.472C395.171 446.956 395.406 448.687 395.269 450.294C395.265 450.912 394.884 452.023 394.137 452.391L394.259 452.639C408.314 447.86 425.441 446.799 439.354 444.244ZM373.77 471.366C378.37 470.02 385.217 466.95 386.129 461.267C386.66 456.695 383.988 449.395 382.034 445.434C377.28 434.542 368.747 431.056 358.551 434.239C353.907 441.147 348.771 447.683 349.817 456.71C350.967 468.455 362.455 474.793 373.77 471.366ZM334.292 459.135C334.79 458.89 335.289 458.644 335.909 458.646C335.566 454.813 335.473 450.857 336 446.904C335.379 446.902 334.51 447.023 333.89 447.021C332.771 447.265 331.78 447.138 330.662 447.382C332.47 454.186 334.043 459.258 334.292 459.135Z" fill="#817964"/>
<path d="M432.606 386.624C421.418 389.681 409.375 391.005 397.844 390.229C389.288 389.832 390.078 383.902 389.515 376.484C389.065 370.549 387.012 363.25 392.623 359.559C396.364 357.098 401.58 356.372 405.682 355.272C411.151 353.805 417.246 351.721 423.072 352.233C424.684 352.362 425.163 354.588 423.669 355.325L423.42 355.448C428.559 364.61 431.208 375.001 433.363 385.019C433.729 385.762 433.476 386.503 432.606 386.624ZM426.303 367.57C424.969 363.611 423.508 360.022 422.174 356.062C414.585 358.883 406.029 358.486 398.807 362.049C394.822 364.015 392.571 366.357 392.528 371.919C392.386 374.144 392.865 376.37 393.222 378.349C393.912 385.396 396.007 387.133 402.83 387.153C408.163 387.293 429.867 387.975 430.291 381.302C430.446 377.223 427.637 371.529 426.303 367.57Z" fill="#817964"/>
<path d="M346.901 416.9C344.781 418.253 343.649 420.351 342.267 422.572C341.891 423.065 341.398 422.693 341.525 422.323C341.299 419.355 343.55 417.014 346.29 415.662C347.164 414.923 347.897 416.408 346.901 416.9Z" fill="#817964"/>
<path d="M337.563 421.199C337.314 421.321 336.821 420.949 336.948 420.579C337.704 418.974 339.203 417.619 340.331 416.139C340.956 415.523 341.943 416.267 341.44 417.131C340.19 418.363 339.184 420.091 337.563 421.199Z" fill="#817964"/>
<path d="M434.312 422.722C434.42 424.824 433.654 427.665 432.399 429.515C431.774 430.131 430.782 430.005 430.914 429.016C430.806 426.914 431.822 423.951 433.199 422.348C433.452 421.607 434.444 421.734 434.312 422.722Z" fill="#817964"/>
<path d="M429.47 422.955C429.456 424.809 429.319 426.415 428.685 428.268C428.553 429.256 427.068 428.757 426.951 427.892C426.965 426.038 427.351 424.308 427.487 422.702C427.99 421.838 429.48 421.719 429.47 422.955Z" fill="#817964"/>
<path d="M545.976 387.95C545.6 388.443 544.609 388.317 544.863 387.576C544.999 385.969 545.756 384.365 546.264 382.883C546.517 382.142 547.88 382.393 547.748 383.382C547.241 384.863 546.855 386.593 545.976 387.95Z" fill="#817964"/>
<path d="M539.681 383.976C539.305 384.47 538.812 384.097 538.817 383.479C538.949 382.491 539.451 381.627 539.954 380.763C540.208 380.022 541.322 380.397 541.068 381.137C540.687 382.249 540.184 383.112 539.681 383.976Z" fill="#817964"/>
</g>
<g clip-path="url(#clip2_151_1759)">
<path d="M3362.66 1328.51C3355.35 1328.74 3349.65 1335.58 3344.17 1339.69C3338 1344.25 3330.47 1348.13 3325.22 1354.06C3322.48 1357.02 3324.99 1362.73 3329.56 1361.36C3337.32 1358.62 3344.17 1352.92 3350.79 1348.13C3356.27 1344.25 3364.71 1340.14 3366.54 1333.3C3366.99 1331.02 3365.17 1328.51 3362.66 1328.51Z" fill="#FBB03B"/>
<path d="M3371.33 1344.71C3364.26 1345.85 3357.64 1352.23 3351.93 1356.34C3346.22 1360.22 3339.6 1363.87 3335.72 1369.57C3333.67 1372.54 3337.09 1376.41 3340.29 1375.5C3347.36 1373.45 3353.53 1367.97 3359.46 1363.87C3365.17 1359.99 3372.47 1356.8 3376.13 1350.87C3378.18 1347.67 3374.76 1344.25 3371.33 1344.71Z" fill="#FBB03B"/>
<path d="M3429.32 1358.16C3424.52 1353.37 3419.73 1348.36 3415.62 1342.88L3415.39 1342.65C3416.08 1341.74 3416.99 1340.83 3417.67 1339.92C3418.59 1339 3419.04 1337.41 3418.13 1336.27C3390.05 1295.89 3361.74 1255.97 3334.81 1215.14C3333.89 1214 3332.3 1213.54 3331.15 1214.68C3300.11 1245.71 3263.81 1266.46 3227.97 1291.33C3227.06 1292.01 3226.6 1292.7 3226.6 1293.61C3224.77 1295.21 3224.09 1297.94 3226.37 1300.45C3243.49 1319.61 3256.73 1342.42 3271.34 1363.64C3284.81 1383.26 3300.11 1401.96 3311.75 1422.49C3312.89 1424.54 3315.17 1424.77 3316.77 1423.63C3317.23 1424.09 3317.69 1424.54 3318.37 1424.32C3318.83 1425 3319.74 1425.23 3320.42 1425C3339.14 1416.79 3356.72 1403.33 3374.07 1392.61C3391.88 1381.66 3409.91 1371.17 3428.63 1361.81C3430.23 1361.13 3430.23 1359.08 3429.32 1358.16ZM3272.48 1358.85C3258.79 1338.77 3243.95 1318.25 3234.59 1295.66C3234.36 1295.43 3234.36 1295.21 3234.13 1294.98C3259.02 1279.69 3282.99 1261.9 3305.36 1243.65C3311.75 1238.41 3318.14 1230.88 3324.99 1226.77C3327.27 1222.44 3330.47 1221.07 3334.81 1223.12C3337.55 1226.77 3340.29 1230.65 3343.02 1234.53C3353.07 1248.9 3362.89 1263.27 3372.7 1277.87C3382.52 1292.24 3391.65 1307.07 3401.24 1321.89C3407.4 1331.25 3411.74 1335.35 3407.63 1346.3C3404.89 1353.37 3397.13 1359.99 3391.88 1365.46C3379.32 1378.69 3364.94 1389.64 3350.1 1399.68C3343.94 1403.33 3337.77 1407.21 3332.07 1411.31C3327.73 1414.05 3323.16 1417.02 3318.83 1419.75C3318.6 1419.07 3318.37 1418.38 3317.69 1417.93C3300.34 1400.36 3286.41 1379.15 3272.48 1358.85ZM3414.93 1364.09C3403.75 1370.94 3391.65 1376.64 3380.01 1383.03C3377.27 1384.62 3374.3 1386.22 3371.33 1387.82C3387.08 1375.27 3399.64 1361.13 3412.42 1346.07C3418.59 1354.06 3425.89 1357.02 3414.93 1364.09Z" fill="#817964"/>
<path d="M3336.63 1276.27C3322.71 1262.13 3300.11 1263.96 3286.18 1276.73C3285.73 1277.19 3285.73 1277.64 3285.95 1278.1C3273.85 1288.59 3274.54 1310.03 3283.67 1322.35C3296 1338.55 3320.43 1340.83 3335.49 1326.91C3350.1 1313.68 3350.33 1290.19 3336.63 1276.27ZM3341.2 1315.28C3339.6 1310.72 3337.55 1305.47 3334.58 1300.22C3337.32 1296.8 3339.83 1293.15 3341.88 1289.28C3345.31 1297.72 3345.08 1307.3 3341.2 1315.28ZM3341.66 1288.36C3339.37 1292.24 3336.86 1295.89 3334.12 1299.31C3329.33 1290.87 3322.71 1282.66 3315.17 1277.64C3319.28 1275.59 3323.85 1273.99 3328.42 1272.85C3330.7 1274.22 3332.98 1275.82 3334.81 1277.87C3338 1281.06 3340.29 1284.49 3341.66 1288.36ZM3288.47 1279.24C3289.38 1278.1 3290.29 1276.96 3291.43 1275.82C3292.35 1275.13 3293.49 1274.45 3294.4 1273.99C3301.25 1272.62 3307.41 1274.22 3313.12 1277.64C3303.76 1282.43 3296 1289.96 3290.52 1298.86C3288.01 1292.47 3287.32 1285.85 3288.47 1279.24ZM3314.03 1278.33C3321.79 1283.57 3328.19 1292.01 3333.21 1300.68C3325.68 1309.81 3316.77 1317.1 3306.5 1323.04C3302.39 1319.16 3298.97 1314.82 3297.14 1312.31C3294.4 1308.44 3292.35 1304.33 3290.75 1300C3296.46 1290.64 3304.45 1283.34 3314.03 1278.33ZM3327.5 1272.4C3322.71 1273.31 3318.37 1274.9 3314.03 1276.96C3308.33 1273.54 3302.16 1271.94 3295.54 1273.08C3305.59 1267.83 3317.69 1267.15 3327.5 1272.4ZM3287.55 1280.15C3286.41 1286.77 3287.32 1293.38 3289.61 1299.77C3286.64 1304.79 3284.36 1310.49 3282.99 1316.19C3276.82 1304.33 3279.79 1290.87 3287.55 1280.15ZM3283.44 1316.65C3285.04 1310.95 3287.1 1305.47 3290.06 1300.68C3292.12 1305.93 3294.86 1310.72 3298.28 1315.05C3299.88 1317.1 3302.39 1320.07 3305.59 1323.04C3301.93 1324.86 3298.28 1326.69 3294.4 1328.28C3292.12 1326.91 3289.83 1325.09 3287.78 1322.81C3286.18 1320.98 3284.58 1318.93 3283.44 1316.65ZM3294.86 1328.74C3298.74 1327.37 3302.39 1325.54 3306.04 1323.72C3309.92 1327.37 3314.72 1331.02 3319.06 1332.62C3310.84 1334.44 3302.16 1333.07 3294.86 1328.74ZM3320.65 1332.16C3316.09 1331.02 3311.07 1327.37 3306.96 1323.26C3317.23 1317.79 3326.36 1310.49 3333.89 1301.59C3336.86 1306.84 3339.14 1312.09 3340.74 1316.65C3339.37 1319.16 3337.55 1321.67 3335.26 1323.72C3330.93 1328.05 3325.9 1330.79 3320.65 1332.16Z" fill="#817964"/>
</g>
</g>
<defs>
<clipPath id="clip0_151_1759">
<rect width="3399" height="1912" fill="white"/>
</clipPath>
<clipPath id="clip1_151_1759">
<rect width="252.437" height="152.386" fill="white" transform="matrix(-0.896806 0.442424 0.442424 0.896806 520.5 281.697)"/>
</clipPath>
<clipPath id="clip2_151_1759">
<rect width="205" height="211" fill="white" transform="translate(3225 1214)"/>
</clipPath>
</defs>
</svg>
