
<svg width="86" height="68" viewBox="0 0 86 68" fill="none" xmlns="http://www.w3.org/2000/svg">
<g clip-path="url(#clip0_46_344)">
<path d="M0 22.036C0 18.2327 2.6778 14.9551 6.40479 14.1967L76.4048 -0.0474854C81.3625 -1.05632 86 2.73254 86 7.79186V60C86 64.4183 82.4183 68 78 68H8C3.58172 68 0 64.4183 0 60V22.036Z" fill="#FBF8EF"/>
<g clip-path="url(#clip1_46_344)">
<path d="M65.8676 24.3693H53.653V19.3213C53.653 17.3187 52.036 15.6895 50.0486 15.6895H36.8988C34.9112 15.6895 33.2944 17.3187 33.2944 19.3213V24.3693H21.0797C19.3815 24.3693 18 25.7613 18 27.4724V57.2066C18 58.9176 19.3815 60.3097 21.0797 60.3097H65.8676C67.5658 60.3097 68.9474 58.9176 68.9474 57.2066V27.4724C68.9474 25.7613 67.5658 24.3693 65.8676 24.3693V24.3693ZM19.9901 33.7194C23.8972 33.4187 27.033 30.2953 27.3875 26.3744H29.1871V32.4007C28.7845 32.5291 28.4927 32.9086 28.4927 33.3566V39.112C28.4927 39.5601 28.7844 39.9395 29.1871 40.068V58.3044H27.3875C27.033 54.3837 23.8973 51.2601 19.9901 50.9595V33.7194ZM30.4828 34.3592H35.1998V38.1094H30.4828V34.3592ZM36.4956 40.0681C36.8982 39.9396 37.19 39.5602 37.19 39.1121V33.3567C37.19 32.9087 36.8983 32.5292 36.4956 32.4008V26.3745H50.4519V32.4008C50.0493 32.5292 49.7574 32.9087 49.7574 33.3567V39.1121C49.7574 39.5602 50.0492 39.9396 50.4519 40.0681V58.3045H36.4956V40.0681ZM47.2846 24.3693H39.6628V22.1062H47.2846V24.3693ZM51.7476 34.3592H56.4646V38.1094H51.7476V34.3592ZM57.7603 40.0681C58.1629 39.9396 58.4548 39.5602 58.4548 39.1121V33.3567C58.4548 32.9087 58.163 32.5292 57.7603 32.4008V26.3745H59.56C59.9145 30.2953 63.0502 33.4188 66.9573 33.7195V50.9597C63.0503 51.2603 59.9145 54.3838 59.56 58.3046H57.7603V40.0681ZM66.9572 27.4724V31.7064C64.1484 31.418 61.9009 29.1885 61.5612 26.3745H65.8676C66.4685 26.3745 66.9572 26.867 66.9572 27.4724V27.4724ZM55.7702 32.354H52.442V26.3744H55.7702V32.354ZM35.2845 19.3213C35.2845 18.4245 36.0087 17.6947 36.8988 17.6947H50.0485C50.9386 17.6947 51.6628 18.4244 51.6628 19.3213V24.3693H49.2746V21.1036C49.2746 20.55 48.8291 20.101 48.2796 20.101H38.6676C38.118 20.101 37.6726 20.55 37.6726 21.1036V24.3693H35.2844V19.3213H35.2845ZM34.5055 26.3745V32.3541H31.1773V26.3745H34.5055ZM21.0797 26.3745H25.3862C25.0465 29.1885 22.799 31.418 19.9901 31.7064V27.4724C19.9901 26.867 20.4789 26.3745 21.0797 26.3745V26.3745ZM19.9901 57.2066V52.9726C22.799 53.2609 25.0465 55.4904 25.3862 58.3044H21.0797C20.4789 58.3044 19.9901 57.812 19.9901 57.2066V57.2066ZM31.1772 58.3044V40.1147H34.5054V58.3045H31.1772V58.3044ZM52.4419 58.3044V40.1147H55.7701V58.3045H52.4419V58.3044ZM65.8676 58.3044H61.5612C61.9009 55.4904 64.1484 53.2609 66.9572 52.9726V57.2066C66.9572 57.812 66.4685 58.3044 65.8676 58.3044Z" fill="#F26522"/>
</g>
</g>
<defs>
<clipPath id="clip0_46_344">
<rect width="86" height="68" fill="white"/>
</clipPath>
<clipPath id="clip1_46_344">
<rect width="50.9474" height="44" fill="white" transform="translate(18 16)"/>
</clipPath>
</defs>
</svg>