<?xml version="1.0" encoding="utf-8"?>
<svg viewBox="237.69998168945312 55.30000305175781 176.39999389648438 176.3999786376953" width="176.39999389648438" height="176.3999786376953" xmlns="http://www.w3.org/2000/svg"><g transform="matrix(1, 0, 0, 1, 5.684341886080802e-14, 0)"><g transform="matrix(1, 0, 0, 1, 5.684341886080802e-14, 0)">
	<path d="M 414.099991 143.5 A 88.199997 88.199997 0 0 1 325.899994 231.699997 A 88.199997 88.199997 0 0 1 237.699997 143.5 A 88.199997 88.199997 0 0 1 325.899994 55.300003 A 88.199997 88.199997 0 0 1 414.099991 143.5 Z" class="st3" style="fill: #c14208ff"/>
</g><path class="st2" d="M370.1,173.1l-32.8-29.6l32.8-29.6c3.1-2.8,3.4-7.7,0.6-10.8c-2.8-3.1-7.7-3.4-10.8-0.6l-33.9,30.6l-33.9-30.6&#10;&#9;c-3.1-2.8-8-2.6-10.8,0.6c-2.8,3.1-2.6,8,0.6,10.8l32.8,29.6l-32.8,29.6c-3.1,2.8-3.4,7.7-0.6,10.8c1.5,1.7,3.6,2.5,5.7,2.5&#10;&#9;c1.8,0,3.7-0.7,5.1-2l33.9-30.6l33.9,30.6c1.5,1.3,3.3,2,5.1,2c2.1,0,4.2-0.9,5.7-2.5C373.5,180.8,373.2,175.9,370.1,173.1z" style="fill: rgb(255, 255, 255);" transform="matrix(1, 0, 0, 1, 5.684341886080802e-14, 0)"/></g></svg>