<?xml version="1.0" encoding="UTF-8"?>
<!DOCTYPE svg PUBLIC "-//W3C//DTD SVG 1.1//EN" "http://www.w3.org/Graphics/SVG/1.1/DTD/svg11.dtd">
<svg xmlns="http://www.w3.org/2000/svg" version="1.1" viewBox="0 0 846 634"  width="846" height="634" style="shape-rendering:geometricPrecision; text-rendering:geometricPrecision; image-rendering:optimizeQuality; fill-rule:evenodd; clip-rule:evenodd" xmlns:xlink="http://www.w3.org/1999/xlink">
<g><path style="opacity:1" fill="#fefefe" d="M -0.5,-0.5 C 214.833,-0.5 430.167,-0.5 645.5,-0.5C 645.5,144.167 645.5,288.833 645.5,433.5C 430.167,433.5 214.833,433.5 -0.5,433.5C -0.5,288.833 -0.5,144.167 -0.5,-0.5 Z"/></g>
<g><path style="opacity:1" fill="#3a3a3a" d="M 218.5,10.5 C 223.102,10.384 226.935,12.0507 230,15.5C 230.597,23.1853 230.43,30.852 229.5,38.5C 301.242,35.6818 372.909,31.5152 444.5,26C 484.611,24.3872 524.611,25.7205 564.5,30C 572.528,31.5389 580.528,33.2055 588.5,35C 591.578,36.5265 593.412,39.0265 594,42.5C 597.409,149.217 604.243,255.717 614.5,362C 614.263,366.461 611.93,369.128 607.5,370C 425.394,380.051 243.894,396.551 63,419.5C 59.2597,419.416 57.2597,417.416 57,413.5C 46.4419,350.923 39.4419,287.923 36,224.5C 33.7642,172.526 36.7642,120.859 45,69.5C 45.4652,68.0692 46.2986,66.9025 47.5,66C 63.7132,60.1129 80.3799,55.7796 97.5,53C 92.7921,45.2083 89.4588,36.875 87.5,28C 87.8477,23.3127 90.1811,19.9794 94.5,18C 128.15,19.5457 161.816,18.5457 195.5,15C 203.343,13.6967 211.01,12.1967 218.5,10.5 Z"/></g>
<g><path style="opacity:1" fill="#f6f6f6" d="M 107.5,48.5 C 108.477,45.7131 108.81,42.7131 108.5,39.5C 116.684,39.8257 124.684,39.4924 132.5,38.5C 158.854,36.999 185.021,33.999 211,29.5C 211.772,29.6448 212.439,29.9781 213,30.5C 213.735,32.8713 214.568,35.2046 215.5,37.5C 179.725,39.162 144.225,43.162 109,49.5C 108.235,49.4301 107.735,49.0967 107.5,48.5 Z"/></g>
<g><path style="opacity:1" fill="#959595" d="M 132.5,38.5 C 124.684,39.4924 116.684,39.8257 108.5,39.5C 108.81,42.7131 108.477,45.7131 107.5,48.5C 107.5,45.1667 107.5,41.8333 107.5,38.5C 115.833,38.5 124.167,38.5 132.5,38.5 Z"/></g>
<g><path style="opacity:1" fill="#fefefe" d="M 390.5,41.5 C 441.177,41.1506 491.844,41.6506 542.5,43C 552.584,43.1906 562.25,45.1906 571.5,49C 576.33,53.827 579.163,59.6603 580,66.5C 583.28,163.427 590.114,260.094 600.5,356.5C 465.367,371.421 330.034,384.421 194.5,395.5C 195.538,387.194 195.705,378.861 195,370.5C 189.991,320.957 186.658,271.29 185,221.5C 185.193,166.461 184.026,111.461 181.5,56.5C 250.958,46.7689 320.625,41.7689 390.5,41.5 Z"/></g>
<g><path style="opacity:1" fill="#fefefe" d="M 160.5,58.5 C 162.265,61.3929 163.432,64.7262 164,68.5C 167.399,116.285 172.065,163.952 178,211.5C 181.841,263.774 184.174,316.107 185,368.5C 185.407,377.939 186.574,387.273 188.5,396.5C 154.935,399.2 121.435,402.533 88,406.5C 82.6837,406.57 77.517,405.737 72.5,404C 67.6412,398.443 64.8079,391.943 64,384.5C 60.6108,348.552 57.9441,312.552 56,276.5C 55.1667,212.164 55.3334,147.831 56.5,83.5C 90.7158,72.9453 125.382,64.612 160.5,58.5 Z"/></g>
<g><path style="opacity:1" fill="#393938" d="M 429.5,336.5 C 424.269,336.444 419.269,337.111 414.5,338.5C 356.861,341.694 315.361,317.361 290,265.5C 273.484,223.084 276.484,182.084 299,142.5C 310.691,120.475 327.857,104.308 350.5,94C 384.182,70.0662 420.849,64.3995 460.5,77C 507.865,94.3774 534.365,128.211 540,178.5C 543.253,220.39 533.253,258.723 510,293.5C 494.462,312.012 474.962,324.512 451.5,331C 444.127,332.843 436.794,334.676 429.5,336.5 Z"/></g>
<g><path style="opacity:1" fill="#444444" d="M 546.5,77.5 C 550.514,77.3345 554.514,77.5012 558.5,78C 559.91,78.3678 560.91,79.2011 561.5,80.5C 556.869,81.6616 552.202,81.8283 547.5,81C 546.663,79.9887 546.33,78.8221 546.5,77.5 Z"/></g>
<g><path style="opacity:1" fill="#444444" d="M 215.5,78.5 C 220.31,79.5716 224.643,81.7382 228.5,85C 230.329,86.1133 231.163,87.6133 231,89.5C 230.439,90.0219 229.772,90.3552 229,90.5C 224.126,88.2949 219.793,85.2949 216,81.5C 215.517,80.552 215.351,79.552 215.5,78.5 Z"/></g>
<g><path style="opacity:1" fill="#3f3f3f" d="M 200.5,83.5 C 203.959,84.436 206.793,86.436 209,89.5C 211.99,92.2918 213.823,95.6252 214.5,99.5C 210.05,99.8584 206.55,98.1917 204,94.5C 202.111,91.8884 200.611,89.0551 199.5,86C 199.743,85.0979 200.077,84.2646 200.5,83.5 Z"/></g>
<g><path style="opacity:1" fill="#f8ae3b" d="M 384.5,317.5 C 382.485,316.076 380.152,315.41 377.5,315.5C 337.818,306.32 312.651,281.986 302,242.5C 297.19,219.753 297.523,197.086 303,174.5C 320.697,138.47 347.863,112.303 384.5,96C 420.468,84.3287 454.134,88.9954 485.5,110C 506.747,128.661 518.247,152.161 520,180.5C 521.795,213.868 514.795,245.201 499,274.5C 481.858,297.605 459.024,311.772 430.5,317C 415.151,319.947 399.817,320.113 384.5,317.5 Z"/></g>
<g><path style="opacity:1" fill="#3f3f3f" d="M 543.5,91.5 C 550.008,93.5037 556.341,96.0037 562.5,99C 563.337,100.011 563.67,101.178 563.5,102.5C 561.143,102.663 558.81,102.497 556.5,102C 552.217,99.799 547.883,97.799 543.5,96C 542.272,94.5098 542.272,93.0098 543.5,91.5 Z"/></g>
<g><path style="opacity:1" fill="#373737" d="M 408.5,105.5 C 429.745,102.64 448.412,108.14 464.5,122C 501.253,158.425 507.753,199.591 484,245.5C 458.97,278.193 425.804,292.027 384.5,287C 350.479,280.31 329.645,260.144 322,226.5C 318.81,198.102 325.143,172.102 341,148.5C 345.167,144.333 349.333,140.167 353.5,136C 358.554,132.806 363.888,130.139 369.5,128C 380.742,117.381 393.742,109.881 408.5,105.5 Z"/></g>
<g><path style="opacity:1" fill="#f9f9f9" d="M 374.5,144.5 C 389.981,145.81 396.814,154.143 395,169.5C 391.914,174.766 387.247,177.433 381,177.5C 377.513,177.256 374.513,175.923 372,173.5C 365.485,163 366.318,153.333 374.5,144.5 Z"/></g>
<g><path style="opacity:1" fill="#fcfcfc" d="M 401.5,184.5 C 411.918,183.413 419.751,187.413 425,196.5C 432.765,209.769 432.265,222.603 423.5,235C 413.187,241.979 402.187,243.313 390.5,239C 383.343,231.183 380.843,222.016 383,211.5C 384.751,203.746 387.585,196.413 391.5,189.5C 395.666,189.277 398.999,187.611 401.5,184.5 Z"/></g>
<g><path style="opacity:1" fill="#444444" d="M 149.5,220.5 C 150.497,220.47 151.164,220.97 151.5,222C 149.49,227.069 145.823,228.736 140.5,227C 139.62,225.644 139.286,224.144 139.5,222.5C 142.187,222.664 144.854,222.497 147.5,222C 148.416,221.722 149.082,221.222 149.5,220.5 Z"/></g>
<g><path style="opacity:1" fill="#3f3f3f" d="M 552.5,310.5 C 553.552,310.351 554.552,310.517 555.5,311C 558,314.833 561.167,318 565,320.5C 565.483,321.448 565.649,322.448 565.5,323.5C 557.545,322.878 553.212,318.545 552.5,310.5 Z"/></g>
<g><path style="opacity:1" fill="#b0823a" d="M 377.5,315.5 C 380.152,315.41 382.485,316.076 384.5,317.5C 381.848,317.59 379.515,316.924 377.5,315.5 Z"/></g>
<g><path style="opacity:1" fill="#434343" d="M 539.5,324.5 C 546.057,327.368 551.89,331.368 557,336.5C 557.494,338.134 557.66,339.801 557.5,341.5C 555.345,341.628 553.345,341.128 551.5,340C 548,336.5 544.5,333 541,329.5C 539.991,327.975 539.491,326.308 539.5,324.5 Z"/></g>
<g><path style="opacity:1" fill="#b1b1b1" d="M 429.5,336.5 C 424.731,337.889 419.731,338.556 414.5,338.5C 419.269,337.111 424.269,336.444 429.5,336.5 Z"/></g>
<g><path style="opacity:1" fill="#434343" d="M 160.5,342.5 C 164.258,344.254 168.258,344.921 172.5,344.5C 172.67,345.822 172.337,346.989 171.5,348C 167.256,349.013 163.423,348.18 160,345.5C 159.53,344.423 159.697,343.423 160.5,342.5 Z"/></g>
<g><path style="opacity:1" fill="#434343" d="M 159.5,369.5 C 165.369,369.048 171.035,369.881 176.5,372C 177.337,373.011 177.67,374.178 177.5,375.5C 170.599,375.693 164.599,373.693 159.5,369.5 Z"/></g>
<g><path style="opacity:1" fill="#414141" d="M 151.5,378.5 C 161.833,383.049 172.167,387.382 182.5,391.5C 182.291,392.086 181.957,392.586 181.5,393C 169.247,392.706 159.247,387.873 151.5,378.5 Z"/></g>
</svg>
