<svg width="86" height="68" viewBox="0 0 86 68" fill="none" xmlns="http://www.w3.org/2000/svg">
<g clip-path="url(#clip0_46_416)">
<path d="M0 22.036C0 18.2327 2.6778 14.9551 6.40479 14.1967L76.4048 -0.0474854C81.3625 -1.05632 86 2.73254 86 7.79186V60C86 64.4183 82.4183 68 78 68H8C3.58172 68 0 64.4183 0 60V22.036Z" fill="#3B673F"/>
<g clip-path="url(#clip1_46_416)">
<path d="M47.1792 28.3329C47.3058 27.1814 47.4056 25.8451 46.9862 24.56C46.3461 22.6058 44.982 21.3994 43.418 21.3994C43.4071 21.3994 43.3959 21.3994 43.3849 21.3996C43.3739 21.3995 43.3629 21.3994 43.3518 21.3994C41.7896 21.3994 40.4263 22.6059 39.7863 24.56C39.7862 24.5603 39.7861 24.5605 39.786 24.5608C39.3851 25.7891 39.4552 27.0996 39.5907 28.333C39.6203 28.6017 39.7767 28.8411 40.0129 28.9793C40.2494 29.1175 40.538 29.1384 40.7922 29.0357C42.4896 28.351 44.2824 28.3509 45.9774 29.0356C46.0842 29.0788 46.1972 29.1002 46.3099 29.1002C46.4652 29.1002 46.6198 29.0595 46.7569 28.9794C46.9932 28.8411 47.1497 28.6017 47.1792 28.3329V28.3329ZM45.5297 27.0802C44.1204 26.7195 42.6512 26.7195 41.2406 27.0804C41.2109 26.4064 41.2461 25.7149 41.4511 25.0865C41.8495 23.87 42.5768 23.1181 43.3527 23.1181C43.3588 23.1181 43.3651 23.1181 43.3712 23.1182C43.3803 23.1183 43.3894 23.1183 43.3985 23.1182C44.1809 23.1039 44.9197 23.8603 45.3209 25.0857C45.5254 25.7117 45.5599 26.4042 45.5297 27.0802Z" fill="white"/>
<path d="M43.3842 42.7119C42.9013 42.7119 42.5098 43.0967 42.5098 43.5713V50.6454C42.5098 51.12 42.9013 51.5048 43.3842 51.5048C43.8671 51.5048 44.2587 51.12 44.2587 50.6454V43.5713C44.2587 43.0967 43.8672 42.7119 43.3842 42.7119Z" fill="white"/>
<path d="M56.8072 40.7588H56.8022C56.3193 40.7588 55.9277 41.1435 55.9277 41.6182C55.9277 42.0928 56.3193 42.4775 56.8022 42.4775H56.8072C57.29 42.4775 57.6816 42.0928 57.6816 41.6182C57.6816 41.1435 57.29 40.7588 56.8072 40.7588Z" fill="white"/>
<path d="M65.7546 37.2344C65.7513 35.4044 64.8929 34.8744 63.5829 34.2739L62.9487 33.9843V30.005C62.9487 28.9857 62.1027 28.1564 61.0629 28.1564H58.024C56.9842 28.1564 56.1384 28.9857 56.1384 30.005V30.8744L50.8555 28.462C51.2153 24.5981 50.0793 20.7214 47.8608 18.2918C46.5463 16.8523 44.9567 16.0596 43.3847 16.0596C41.8135 16.0596 40.2249 16.8517 38.9112 18.2898C36.6923 20.719 35.5553 24.5969 35.9143 28.4631L30.6311 30.8756V30.0051C30.6311 28.9858 29.7863 28.1565 28.7479 28.1565H25.7066C24.6681 28.1565 23.8233 28.9858 23.8233 30.0051V33.9844L23.1886 34.2742C21.8799 34.8727 21.0215 35.402 21.0149 37.2339L21 43.2301C20.9994 43.4883 21.1169 43.7332 21.3201 43.8969C21.4779 44.0239 21.6741 44.0916 21.8745 44.0916C21.9323 44.0916 21.9906 44.0859 22.0483 44.0744L37.2966 41.0341L38.0897 48.2292L31.0466 52.5129C30.7891 52.6695 30.6324 52.946 30.6324 53.2436V58.4523C30.6324 58.7258 30.7648 58.9829 30.9891 59.1449C31.141 59.2546 31.3228 59.3117 31.5069 59.3117C31.5945 59.3117 31.6827 59.2987 31.7684 59.2723L39.6989 56.8292C40.7098 59.0581 42.124 59.9412 43.3847 59.9412C44.6456 59.9412 46.06 59.0579 47.0708 56.8286L55.0036 59.2724C55.0893 59.2988 55.1774 59.3117 55.265 59.3117C55.449 59.3117 55.6309 59.2546 55.7828 59.145C56.0071 58.9831 56.1396 58.7259 56.1396 58.4524V53.2437C56.1396 52.946 55.9829 52.6695 55.7254 52.513L48.68 48.2279L49.4722 41.04L52.7845 41.6975C52.8429 41.7091 52.9011 41.7147 52.9585 41.7147C53.3661 41.7147 53.7309 41.433 53.8147 41.0253C53.8267 40.9669 53.8323 40.9088 53.8322 40.8515C53.8321 40.4514 53.5461 40.0932 53.1316 40.0105L49.662 39.3182L49.8887 37.2616L64.0139 40.0753L64.02 42.1755L60.8271 41.5417C60.5311 41.483 60.2393 41.5791 60.039 41.7733C59.9184 41.8894 59.8305 42.0409 59.7944 42.2158C59.6985 42.6809 60.0044 43.1344 60.4777 43.2288L64.7238 44.0746C64.7814 44.0861 64.8396 44.0917 64.8975 44.0917C65.0979 44.0917 65.2942 44.0239 65.452 43.8968C65.6552 43.7331 65.7727 43.4882 65.7719 43.2298L65.7546 37.2344ZM57.8872 30.005C57.8872 29.9358 57.9511 29.8751 58.0239 29.8751H61.0628C61.1358 29.8751 61.1997 29.9358 61.1997 30.005V33.1857L57.8871 31.673V30.005H57.8872ZM25.5722 30.005C25.5722 29.9346 25.6337 29.8751 25.7066 29.8751H28.7479C28.8207 29.8751 28.8822 29.9346 28.8822 30.005V31.6742L25.5721 33.1857V30.005H25.5722ZM23.926 35.8327L36.1102 30.2689L36.6918 35.5456L22.7611 38.3209L22.7638 37.239C22.7668 36.3871 22.8651 36.3178 23.926 35.8327V35.8327ZM22.7515 42.1804L22.7568 40.0755L36.8808 37.2616L37.1075 39.318L22.7515 42.1804ZM32.3812 57.2823V53.7225L38.2984 50.1236L38.5073 52.0188C38.6421 53.2423 38.8497 54.3002 39.111 55.2092L32.3812 57.2823ZM43.3847 58.2225C42.1746 58.2225 40.708 56.028 40.2459 51.8338L37.6781 28.5346C37.295 25.0546 38.2662 21.5689 40.2126 19.4379C41.1902 18.3677 42.3167 17.7783 43.3846 17.7783C44.4533 17.7783 45.5807 18.3684 46.559 19.4397C48.5052 21.5713 49.4756 25.056 49.0913 28.5344L46.5233 51.8338C46.0615 56.028 44.5947 58.2225 43.3847 58.2225ZM54.3908 53.7224V57.2822L47.6586 55.2083C47.9199 54.2995 48.1274 53.2418 48.2622 52.0187L48.4713 50.1221L54.3908 53.7224ZM50.0778 35.5455L50.6595 30.2678L62.8449 35.8322C63.906 36.3184 64.0042 36.3877 64.0057 37.2383L64.0089 38.3205L50.0778 35.5455Z" fill="white"/>
</g>
</g>
<defs>
<clipPath id="clip0_46_416">
<rect width="86" height="68" fill="white"/>
</clipPath>
<clipPath id="clip1_46_416">
<rect width="44.7719" height="44" fill="white" transform="translate(21 16)"/>
</clipPath>
</defs>
</svg>