<svg width="50" height="50" viewBox="0 0 80 80" fill="none" xmlns="http://www.w3.org/2000/svg">
<g clip-path="url(#clip0_46_358)">
<path d="M0 22.036C0 18.2327 2.6778 14.9551 6.40479 14.1967L76.4048 -0.0474854C81.3625 -1.05632 86 2.73254 86 7.79186V60C86 64.4183 82.4183 68 78 68H8C3.58172 68 0 64.4183 0 60V22.036Z" fill="#FBF8EF"/>
<path d="M46.4061 44.8782C46.5721 44.492 46.6644 44.0669 46.6644 43.6205C46.6644 41.8581 45.2305 40.4241 43.4679 40.4241H42.1073H38.8867L40.4129 37.8565C40.8622 37.1009 40.9764 36.1842 40.7265 35.3413C40.4765 34.4986 39.8809 33.7924 39.0926 33.404C38.2053 32.9667 37.1488 32.9725 36.2663 33.4192C33.7376 34.6994 31.4365 36.4495 29.5144 38.5387C29.3435 38.2337 29.0176 38.0271 28.6431 38.0271H19.8542C19.3027 38.0271 18.8555 38.4744 18.8555 39.0259V44.5189C18.8555 45.0704 19.3027 45.5176 19.8542 45.5176C20.4057 45.5176 20.8529 45.0704 20.8529 44.5189V40.0246H27.6443V58.0018H20.8529V53.5075C20.8529 52.956 20.4057 52.5088 19.8542 52.5088C19.3027 52.5088 18.8555 52.956 18.8555 53.5075V59.0005C18.8555 59.552 19.3027 59.9993 19.8542 59.9993H28.6431C29.1946 59.9993 29.6418 59.552 29.6418 59.0005V58.9647C30.8297 59.6327 32.1828 59.9993 33.5568 59.9993H42.7751C44.5366 59.9993 45.9695 58.5662 45.9695 56.8048C45.9695 56.3816 45.8861 55.9779 45.736 55.6079H45.7982C47.5608 55.6079 48.9947 54.174 48.9947 52.4115C48.9947 51.5607 48.66 50.7871 48.1161 50.2138C48.66 49.6404 48.9947 48.8668 48.9947 48.016C48.9946 46.4613 47.8789 45.163 46.4061 44.8782V44.8782ZM45.7981 53.6104H39.2813C38.7298 53.6104 38.2825 54.0576 38.2825 54.6091C38.2825 55.1606 38.7298 55.6078 39.2813 55.6078H42.7749C43.4349 55.6078 43.9718 56.1447 43.9718 56.8047C43.9718 57.4647 43.435 58.0018 42.775 58.0018H33.5567C32.1238 58.0018 30.721 57.4715 29.6417 56.5368V41.4981L29.7099 41.4086C31.6842 38.8185 34.2633 36.6721 37.1686 35.2013C37.4935 35.0367 37.8825 35.0345 38.2096 35.1957C38.5043 35.3408 38.7181 35.5943 38.8115 35.9093C38.9049 36.2243 38.8638 36.5533 38.696 36.8357L36.2726 40.9125C36.089 41.2211 36.0854 41.6045 36.2629 41.9166C36.4405 42.2288 36.7719 42.4215 37.131 42.4215H43.4678C44.1289 42.4215 44.6668 42.9595 44.6668 43.6205C44.6668 44.2816 44.1289 44.8195 43.4678 44.8195H39.2813C38.7298 44.8195 38.2825 45.2667 38.2825 45.8182C38.2825 46.3697 38.7298 46.817 39.2813 46.817H45.7981C46.4593 46.817 46.9972 47.3549 46.9972 48.016C46.9972 48.6771 46.4593 49.215 45.7981 49.215H39.2813C38.7298 49.215 38.2825 49.6623 38.2825 50.2138C38.2825 50.7653 38.7298 51.2125 39.2813 51.2125H45.7981C46.4593 51.2125 46.9972 51.7504 46.9972 52.4115C46.9972 53.0725 46.4594 53.6104 45.7981 53.6104V53.6104Z" fill="#F26522"/>
<path d="M51.5201 21.2224L47.235 20.5999L45.3186 16.7168C45.1504 16.376 44.8032 16.1602 44.423 16.1602C44.0428 16.1602 43.6956 16.376 43.5273 16.7168L41.6109 20.5999L37.3259 21.2224C36.9496 21.2772 36.6372 21.5407 36.5196 21.9023C36.4021 22.2638 36.5001 22.6607 36.7723 22.9261L39.873 25.9485L39.1411 30.2163C39.0768 30.591 39.2309 30.9697 39.5385 31.1931C39.8461 31.4165 40.2539 31.4459 40.5902 31.2692L44.423 29.2541L48.2557 31.2692C48.4018 31.3461 48.5614 31.3838 48.7203 31.3838C48.9274 31.3838 49.1335 31.3194 49.3075 31.1931C49.615 30.9697 49.7691 30.591 49.7049 30.2163L48.9729 25.9485L52.0737 22.9261C52.3459 22.6607 52.4438 22.2638 52.3263 21.9023C52.2089 21.5407 51.8964 21.2772 51.5201 21.2224V21.2224ZM47.2026 24.8846C46.9673 25.1141 46.8599 25.4446 46.9154 25.7687L47.3941 28.5594L44.8878 27.2418C44.7424 27.1653 44.5827 27.1271 44.4231 27.1271C44.2635 27.1271 44.1038 27.1654 43.9584 27.2418L41.452 28.5594L41.9307 25.7687C41.9863 25.4447 41.8788 25.1141 41.6435 24.8846L39.6159 22.9082L42.4179 22.5011C42.7433 22.4538 43.0244 22.2494 43.17 21.9547L44.4231 19.4155L45.6762 21.9547C45.8217 22.2494 46.1028 22.4538 46.4282 22.5011L49.2303 22.9082L47.2026 24.8846Z" fill="#F26522"/>
<path d="M66.2293 23.6064C66.1118 23.2449 65.7993 22.9813 65.4231 22.9266L62.1401 22.4497L60.672 19.4747C60.5037 19.1338 60.1565 18.918 59.7763 18.918C59.3961 18.918 59.0489 19.1338 58.8807 19.4747L57.4125 22.4497L54.1296 22.9266C53.7533 22.9813 53.4409 23.2449 53.3233 23.6064C53.2059 23.968 53.3038 24.3649 53.576 24.6302L55.9516 26.9459L55.3908 30.2155C55.3265 30.5903 55.4806 30.9689 55.7882 31.1923C56.0958 31.4159 56.5036 31.4451 56.8399 31.2684L59.7763 29.7247L62.7127 31.2684C62.8588 31.3452 63.0184 31.3831 63.1773 31.3831C63.3843 31.3831 63.5905 31.3186 63.7645 31.1923C64.072 30.9689 64.2261 30.5903 64.1619 30.2155L63.6011 26.9459L65.9767 24.6302C66.2488 24.3649 66.3467 23.968 66.2293 23.6064ZM61.8307 25.8819C61.5954 26.1114 61.488 26.4419 61.5435 26.766L61.851 28.5586L60.241 27.7122C60.0955 27.6357 59.9359 27.5976 59.7763 27.5976C59.6167 27.5976 59.4571 27.6358 59.3116 27.7122L57.7017 28.5586L58.0092 26.766C58.0647 26.442 57.9572 26.1114 57.7219 25.8819L56.4194 24.6123L58.2193 24.3509C58.5447 24.3035 58.8258 24.0992 58.9713 23.8045L59.7763 22.1733L60.5813 23.8045C60.7268 24.0992 61.008 24.3035 61.3334 24.3509L63.1333 24.6123L61.8307 25.8819Z" fill="#F26522"/>
<path d="M25.2445 26.9459L24.6838 30.2155C24.6194 30.5903 24.7735 30.9689 25.0812 31.1923C25.3888 31.4159 25.7964 31.4451 26.1329 31.2684L29.0693 29.7247L32.0057 31.2684C32.1518 31.3452 32.3114 31.3831 32.4703 31.3831C32.6773 31.3831 32.8835 31.3186 33.0574 31.1923C33.3649 30.9689 33.519 30.5903 33.4548 30.2155L32.894 26.9459L35.2696 24.6302C35.5419 24.3649 35.6398 23.968 35.5223 23.6064C35.4048 23.2449 35.0923 22.9813 34.716 22.9266L31.4331 22.4497L29.965 19.4747C29.7967 19.1338 29.4495 18.918 29.0693 18.918C28.6891 18.918 28.3419 19.1338 28.1736 19.4747L26.7055 22.4497L23.4226 22.9266C23.0462 22.9813 22.7338 23.2449 22.6163 23.6064C22.4988 23.968 22.5968 24.3649 22.869 24.6302L25.2445 26.9459ZM27.5123 24.3509C27.8377 24.3035 28.1188 24.0992 28.2643 23.8045L29.0693 22.1733L29.8743 23.8045C30.0198 24.0992 30.3009 24.3035 30.6263 24.3509L32.4262 24.6123L31.1237 25.8819C30.8884 26.1114 30.7809 26.4419 30.8365 26.766L31.144 28.5586L29.534 27.7122C29.3885 27.6357 29.2289 27.5976 29.0693 27.5976C28.9097 27.5976 28.7501 27.6358 28.6046 27.7122L26.9946 28.5586L27.3021 26.766C27.3577 26.442 27.2502 26.1114 27.0149 25.8819L25.7124 24.6123L27.5123 24.3509Z" fill="#F26522"/>
<path d="M20.5603 49.7194C20.7461 49.5337 20.8529 49.276 20.8529 49.0134C20.8529 48.7507 20.7462 48.493 20.5603 48.3073C20.3735 48.1215 20.1169 48.0146 19.8542 48.0146C19.5915 48.0146 19.3339 48.1214 19.1471 48.3073C18.9614 48.493 18.8555 48.7507 18.8555 49.0134C18.8555 49.276 18.9614 49.5337 19.1471 49.7194C19.3339 49.9052 19.5905 50.0121 19.8542 50.0121C20.1169 50.0121 20.3745 49.9053 20.5603 49.7194Z" fill="#F26522"/>
</g>
<defs>
<clipPath id="clip0_46_358">
<rect width="86" height="68" fill="white"/>
</clipPath>
</defs>
</svg>
