
<svg width="86" height="68" viewBox="0 0 86 68" fill="none" xmlns="http://www.w3.org/2000/svg">
<g clip-path="url(#clip0_46_400)">
<path d="M0 22.036C0 18.2327 2.6778 14.9551 6.40479 14.1967L76.4048 -0.0474854C81.3625 -1.05632 86 2.73254 86 7.79186V60C86 64.4183 82.4183 68 78 68H8C3.58172 68 0 64.4183 0 60V22.036Z" fill="#FDA942"/>
<g clip-path="url(#clip1_46_400)">
<path fill-rule="evenodd" clip-rule="evenodd" d="M63.4897 34.5763C63.2876 34.4131 63.0228 34.35 62.7693 34.4044L49.6538 37.2104L48.1828 36.8959L52.0641 29.1216C52.0704 29.1088 52.0765 29.0961 52.0822 29.0833C52.6032 27.8973 52.8674 26.6354 52.8674 25.3323C52.8674 20.1864 48.6813 16 43.5354 16C38.3896 16 34.2032 20.1864 34.2032 25.3323C34.2032 26.6354 34.4673 27.8973 34.9887 29.0833C34.9944 29.0961 35.0001 29.1088 35.0065 29.1216L37.7766 34.6693L36.5379 34.4044C36.5265 34.4017 36.5147 34.4007 36.503 34.399C36.4862 34.396 36.4698 34.393 36.453 34.391C36.4375 34.3893 36.4224 34.3889 36.4073 34.3879C36.3905 34.3869 36.3741 34.3856 36.3576 34.3856C36.3419 34.3856 36.3264 34.3869 36.3106 34.3876C36.2945 34.3886 36.2784 34.3893 36.2626 34.391C36.2462 34.393 36.2301 34.396 36.214 34.3987C36.2019 34.4007 36.1901 34.4017 36.178 34.4041L22.8826 37.2491C22.4865 37.3336 22.2031 37.6841 22.2031 38.0893V45.1775C22.2031 45.6521 22.5878 46.0368 23.0625 46.0368C23.5372 46.0368 23.9219 45.6521 23.9219 45.1775V38.7842L35.4986 36.3074V55.6011L23.9219 58.0778V52.0525C23.9219 51.5778 23.5372 51.1931 23.0625 51.1931C22.5878 51.1931 22.2031 51.5778 22.2031 52.0525V59.1406C22.2031 59.4001 22.3203 59.6458 22.522 59.8087C22.6765 59.9335 22.8675 60 23.0625 60C23.1223 60 23.1827 59.9936 23.2424 59.9809L36.358 57.1748L49.4738 59.9809C49.4785 59.9819 49.4832 59.9825 49.4879 59.9832C49.5071 59.9869 49.5262 59.9899 49.5453 59.9923C49.5541 59.9933 49.5625 59.9946 49.5712 59.9956C49.5984 59.9983 49.6259 60 49.6538 60C49.6813 60 49.7088 59.9983 49.736 59.9956C49.7448 59.9946 49.7535 59.9933 49.7619 59.9923C49.781 59.9899 49.8001 59.9869 49.8189 59.9832C49.8236 59.9822 49.8287 59.9819 49.8334 59.9809L63.1288 57.1362C63.5253 57.0513 63.8086 56.7011 63.8086 56.296V49.2078C63.8086 48.7331 63.4239 48.3484 62.9492 48.3484C62.4746 48.3484 62.0899 48.7331 62.0899 49.2078V55.6007L50.5132 58.0778V38.7842L62.0899 36.3074V42.3328C62.0899 42.8075 62.4746 43.1922 62.9492 43.1922C63.4239 43.1922 63.8086 42.8075 63.8086 42.3328V35.2446C63.8086 34.9851 63.6915 34.7397 63.4897 34.5763V34.5763ZM35.9219 25.3323C35.9219 21.1341 39.3372 17.7188 43.5354 17.7188C47.7336 17.7188 51.149 21.1341 51.149 25.3323C51.149 26.389 50.9361 27.4119 50.5168 28.373L43.5354 42.3563L36.554 28.373C36.1344 27.4119 35.9219 26.389 35.9219 25.3323V25.3323ZM37.2173 36.3074L38.7589 36.6371L42.7667 44.6638C42.912 44.9552 43.2098 45.1395 43.5354 45.1395C43.8611 45.1395 44.1588 44.9552 44.3045 44.6638L47.3899 38.4837L48.7944 38.7842V58.0778L37.2177 55.6007V36.3074H37.2173Z" fill="white"/>
<path fill-rule="evenodd" clip-rule="evenodd" d="M49.0608 25.3318C49.0608 22.2848 46.5821 19.8057 43.535 19.8057C40.4879 19.8057 38.0088 22.2848 38.0088 25.3318C38.0088 28.3789 40.4879 30.8577 43.535 30.8577C46.5821 30.8577 49.0608 28.3789 49.0608 25.3318ZM39.7275 25.3318C39.7275 23.2324 41.4355 21.5244 43.535 21.5244C45.6344 21.5244 47.3424 23.2324 47.3424 25.3318C47.3424 27.4309 45.6344 29.1389 43.535 29.1389C41.4355 29.1389 39.7275 27.4309 39.7275 25.3318V25.3318Z" fill="white"/>
<path fill-rule="evenodd" clip-rule="evenodd" d="M23.0625 49.4746C23.5358 49.4746 23.9219 49.0886 23.9219 48.6152C23.9219 48.1419 23.5358 47.7559 23.0625 47.7559C22.5892 47.7559 22.2031 48.1419 22.2031 48.6152C22.2031 49.0886 22.5892 49.4746 23.0625 49.4746Z" fill="white"/>
<path fill-rule="evenodd" clip-rule="evenodd" d="M62.9492 44.9111C62.4759 44.9111 62.0898 45.2972 62.0898 45.7705C62.0898 46.2438 62.4759 46.6299 62.9492 46.6299C63.4225 46.6299 63.8086 46.2438 63.8086 45.7705C63.8086 45.2972 63.4225 44.9111 62.9492 44.9111Z" fill="white"/>
</g>
</g>
<defs>
<clipPath id="clip0_46_400">
<rect width="86" height="68" fill="white"/>
</clipPath>
<clipPath id="clip1_46_400">
<rect width="44" height="44" fill="white" transform="translate(21 16)"/>
</clipPath>
</defs>
</svg>