<svg width="551" height="91" viewBox="0 0 551 91" fill="none" xmlns="http://www.w3.org/2000/svg">
<g clip-path="url(#clip0_286_1893)">
<path d="M151.344 51.5938H162.281C162.135 54.7604 161.281 57.5521 159.719 59.9688C158.156 62.3854 155.99 64.2708 153.219 65.625C150.469 66.9583 147.219 67.625 143.469 67.625C140.427 67.625 137.708 67.1146 135.312 66.0938C132.938 65.0729 130.917 63.6042 129.25 61.6875C127.604 59.7708 126.344 57.4479 125.469 54.7188C124.615 51.9896 124.188 48.9167 124.188 45.5V43.0312C124.188 39.6146 124.635 36.5417 125.531 33.8125C126.448 31.0625 127.74 28.7292 129.406 26.8125C131.094 24.875 133.115 23.3958 135.469 22.375C137.823 21.3542 140.438 20.8438 143.312 20.8438C147.271 20.8438 150.615 21.5521 153.344 22.9688C156.073 24.3854 158.188 26.3333 159.688 28.8125C161.188 31.2708 162.073 34.0729 162.344 37.2188H151.406C151.365 35.5104 151.073 34.0833 150.531 32.9375C149.99 31.7708 149.135 30.8958 147.969 30.3125C146.802 29.7292 145.25 29.4375 143.312 29.4375C141.958 29.4375 140.781 29.6875 139.781 30.1875C138.781 30.6875 137.948 31.4792 137.281 32.5625C136.615 33.6458 136.115 35.0521 135.781 36.7812C135.469 38.4896 135.312 40.5521 135.312 42.9688V45.5C135.312 47.9167 135.458 49.9792 135.75 51.6875C136.042 53.3958 136.51 54.7917 137.156 55.875C137.802 56.9583 138.635 57.7604 139.656 58.2812C140.698 58.7812 141.969 59.0312 143.469 59.0312C145.135 59.0312 146.542 58.7708 147.688 58.25C148.833 57.7083 149.719 56.8958 150.344 55.8125C150.969 54.7083 151.302 53.3021 151.344 51.5938ZM178.094 33.1875V67H167.531V33.1875H178.094ZM166.906 24.4688C166.906 22.9688 167.448 21.7396 168.531 20.7812C169.615 19.8229 171.021 19.3438 172.75 19.3438C174.479 19.3438 175.885 19.8229 176.969 20.7812C178.052 21.7396 178.594 22.9688 178.594 24.4688C178.594 25.9688 178.052 27.1979 176.969 28.1562C175.885 29.1146 174.479 29.5938 172.75 29.5938C171.021 29.5938 169.615 29.1146 168.531 28.1562C167.448 27.1979 166.906 25.9688 166.906 24.4688ZM195.719 19V67H185.156V19H195.719ZM219.781 58.5V44.5625C219.781 43.6042 219.646 42.7812 219.375 42.0938C219.104 41.4062 218.677 40.875 218.094 40.5C217.51 40.1042 216.729 39.9062 215.75 39.9062C214.958 39.9062 214.281 40.0417 213.719 40.3125C213.156 40.5833 212.729 40.9896 212.438 41.5312C212.146 42.0729 212 42.7604 212 43.5938H201.469C201.469 42.0312 201.812 40.5833 202.5 39.25C203.208 37.8958 204.208 36.7188 205.5 35.7188C206.812 34.7188 208.375 33.9479 210.188 33.4062C212.021 32.8438 214.062 32.5625 216.312 32.5625C219 32.5625 221.396 33.0104 223.5 33.9062C225.625 34.8021 227.302 36.1458 228.531 37.9375C229.76 39.7083 230.375 41.9375 230.375 44.625V58.4688C230.375 60.6771 230.5 62.3542 230.75 63.5C231 64.625 231.354 65.6146 231.812 66.4688V67H221.25C220.75 65.9583 220.375 64.6875 220.125 63.1875C219.896 61.6667 219.781 60.1042 219.781 58.5ZM221.062 46.3438L221.125 51.9688H216.469C215.49 51.9688 214.656 52.1042 213.969 52.375C213.302 52.6458 212.76 53.0208 212.344 53.5C211.948 53.9583 211.656 54.4792 211.469 55.0625C211.302 55.6458 211.219 56.2604 211.219 56.9062C211.219 57.5312 211.365 58.0938 211.656 58.5938C211.969 59.0729 212.385 59.4479 212.906 59.7188C213.427 59.9896 214.01 60.125 214.656 60.125C215.823 60.125 216.812 59.9062 217.625 59.4688C218.458 59.0104 219.094 58.4583 219.531 57.8125C219.969 57.1667 220.188 56.5625 220.188 56L222.5 60.3125C222.083 61.1458 221.604 61.9896 221.062 62.8438C220.542 63.6979 219.885 64.4896 219.094 65.2188C218.323 65.9271 217.375 66.5104 216.25 66.9688C215.125 67.4062 213.76 67.625 212.156 67.625C210.073 67.625 208.156 67.1979 206.406 66.3438C204.677 65.4896 203.292 64.3021 202.25 62.7812C201.208 61.2396 200.688 59.4688 200.688 57.4688C200.688 55.7188 201 54.1562 201.625 52.7812C202.271 51.4062 203.24 50.2396 204.531 49.2812C205.823 48.3229 207.469 47.5938 209.469 47.0938C211.469 46.5938 213.823 46.3438 216.531 46.3438H221.062ZM246.562 40.4062V67H236.031V33.1875H245.906L246.562 40.4062ZM245.312 48.9375L242.844 49C242.844 46.4167 243.156 44.1146 243.781 42.0938C244.406 40.0521 245.292 38.3229 246.438 36.9062C247.583 35.4896 248.948 34.4167 250.531 33.6875C252.135 32.9375 253.917 32.5625 255.875 32.5625C257.438 32.5625 258.865 32.7917 260.156 33.25C261.469 33.7083 262.594 34.4479 263.531 35.4688C264.49 36.4896 265.219 37.8438 265.719 39.5312C266.24 41.1979 266.5 43.2604 266.5 45.7188V67H255.906V45.6875C255.906 44.3333 255.719 43.3021 255.344 42.5938C254.969 41.8646 254.427 41.3646 253.719 41.0938C253.01 40.8229 252.146 40.6875 251.125 40.6875C250.042 40.6875 249.125 40.8958 248.375 41.3125C247.625 41.7292 247.021 42.3125 246.562 43.0625C246.125 43.7917 245.802 44.6562 245.594 45.6562C245.406 46.6562 245.312 47.75 245.312 48.9375ZM290.156 33.1875V40.5H269.781V33.1875H290.156ZM274.062 24.7812H284.594V55.9688C284.594 56.8646 284.698 57.5625 284.906 58.0625C285.115 58.5417 285.469 58.8854 285.969 59.0938C286.49 59.2812 287.177 59.375 288.031 59.375C288.635 59.375 289.135 59.3646 289.531 59.3438C289.927 59.3021 290.302 59.25 290.656 59.1875V66.7188C289.76 67.0104 288.823 67.2292 287.844 67.375C286.865 67.5417 285.823 67.625 284.719 67.625C282.469 67.625 280.542 67.2708 278.938 66.5625C277.354 65.8542 276.146 64.7396 275.312 63.2188C274.479 61.6979 274.062 59.7188 274.062 57.2812V24.7812ZM304.969 41.5625V67H294.438V33.1875H304.281L304.969 41.5625ZM314.969 32.9375L314.781 42.7188C314.365 42.6771 313.802 42.625 313.094 42.5625C312.385 42.5 311.792 42.4688 311.312 42.4688C310.083 42.4688 309.021 42.6146 308.125 42.9062C307.25 43.1771 306.521 43.5938 305.938 44.1562C305.375 44.6979 304.958 45.3854 304.688 46.2188C304.438 47.0521 304.323 48.0208 304.344 49.125L302.438 47.875C302.438 45.6042 302.656 43.5417 303.094 41.6875C303.552 39.8125 304.198 38.1979 305.031 36.8438C305.865 35.4688 306.875 34.4167 308.062 33.6875C309.25 32.9375 310.583 32.5625 312.062 32.5625C312.583 32.5625 313.094 32.5938 313.594 32.6562C314.115 32.7188 314.573 32.8125 314.969 32.9375ZM316.156 50.4375V49.7812C316.156 47.3021 316.51 45.0208 317.219 42.9375C317.927 40.8333 318.969 39.0104 320.344 37.4688C321.719 35.9271 323.417 34.7292 325.438 33.875C327.458 33 329.792 32.5625 332.438 32.5625C335.104 32.5625 337.448 33 339.469 33.875C341.51 34.7292 343.219 35.9271 344.594 37.4688C345.969 39.0104 347.01 40.8333 347.719 42.9375C348.427 45.0208 348.781 47.3021 348.781 49.7812V50.4375C348.781 52.8958 348.427 55.1771 347.719 57.2812C347.01 59.3646 345.969 61.1875 344.594 62.75C343.219 64.2917 341.521 65.4896 339.5 66.3438C337.479 67.1979 335.146 67.625 332.5 67.625C329.854 67.625 327.51 67.1979 325.469 66.3438C323.427 65.4896 321.719 64.2917 320.344 62.75C318.969 61.1875 317.927 59.3646 317.219 57.2812C316.51 55.1771 316.156 52.8958 316.156 50.4375ZM326.688 49.7812V50.4375C326.688 51.7083 326.781 52.8958 326.969 54C327.156 55.1042 327.469 56.0729 327.906 56.9062C328.344 57.7188 328.938 58.3542 329.688 58.8125C330.438 59.2708 331.375 59.5 332.5 59.5C333.604 59.5 334.521 59.2708 335.25 58.8125C336 58.3542 336.594 57.7188 337.031 56.9062C337.469 56.0729 337.781 55.1042 337.969 54C338.156 52.8958 338.25 51.7083 338.25 50.4375V49.7812C338.25 48.5521 338.156 47.3958 337.969 46.3125C337.781 45.2083 337.469 44.2396 337.031 43.4062C336.594 42.5521 336 41.8854 335.25 41.4062C334.5 40.9271 333.562 40.6875 332.438 40.6875C331.333 40.6875 330.406 40.9271 329.656 41.4062C328.927 41.8854 328.344 42.5521 327.906 43.4062C327.469 44.2396 327.156 45.2083 326.969 46.3125C326.781 47.3958 326.688 48.5521 326.688 49.7812ZM354.156 62.0625C354.156 60.5625 354.698 59.3125 355.781 58.3125C356.865 57.2917 358.26 56.7812 359.969 56.7812C361.698 56.7812 363.094 57.2917 364.156 58.3125C365.24 59.3125 365.781 60.5625 365.781 62.0625C365.781 63.5625 365.24 64.8229 364.156 65.8438C363.094 66.8438 361.698 67.3438 359.969 67.3438C358.26 67.3438 356.865 66.8438 355.781 65.8438C354.698 64.8229 354.156 63.5625 354.156 62.0625Z" fill="white"/>
<path d="M395.375 21.5V67H384.406V21.5H395.375ZM409.062 21.5V29.9688H371.031V21.5H409.062ZM405.344 50.4375V49.7812C405.344 47.3021 405.698 45.0208 406.406 42.9375C407.115 40.8333 408.156 39.0104 409.531 37.4688C410.906 35.9271 412.604 34.7292 414.625 33.875C416.646 33 418.979 32.5625 421.625 32.5625C424.292 32.5625 426.635 33 428.656 33.875C430.698 34.7292 432.406 35.9271 433.781 37.4688C435.156 39.0104 436.198 40.8333 436.906 42.9375C437.615 45.0208 437.969 47.3021 437.969 49.7812V50.4375C437.969 52.8958 437.615 55.1771 436.906 57.2812C436.198 59.3646 435.156 61.1875 433.781 62.75C432.406 64.2917 430.708 65.4896 428.688 66.3438C426.667 67.1979 424.333 67.625 421.688 67.625C419.042 67.625 416.698 67.1979 414.656 66.3438C412.615 65.4896 410.906 64.2917 409.531 62.75C408.156 61.1875 407.115 59.3646 406.406 57.2812C405.698 55.1771 405.344 52.8958 405.344 50.4375ZM415.875 49.7812V50.4375C415.875 51.7083 415.969 52.8958 416.156 54C416.344 55.1042 416.656 56.0729 417.094 56.9062C417.531 57.7188 418.125 58.3542 418.875 58.8125C419.625 59.2708 420.562 59.5 421.688 59.5C422.792 59.5 423.708 59.2708 424.438 58.8125C425.188 58.3542 425.781 57.7188 426.219 56.9062C426.656 56.0729 426.969 55.1042 427.156 54C427.344 52.8958 427.438 51.7083 427.438 50.4375V49.7812C427.438 48.5521 427.344 47.3958 427.156 46.3125C426.969 45.2083 426.656 44.2396 426.219 43.4062C425.781 42.5521 425.188 41.8854 424.438 41.4062C423.688 40.9271 422.75 40.6875 421.625 40.6875C420.521 40.6875 419.594 40.9271 418.844 41.4062C418.115 41.8854 417.531 42.5521 417.094 43.4062C416.656 44.2396 416.344 45.2083 416.156 46.3125C415.969 47.3958 415.875 48.5521 415.875 49.7812ZM462.406 58.7812V33.1875H472.969V67H463.094L462.406 58.7812ZM463.406 51.9062L466.156 51.8438C466.156 54.1146 465.885 56.2188 465.344 58.1562C464.802 60.0729 464 61.7396 462.938 63.1562C461.896 64.5729 460.604 65.6771 459.062 66.4688C457.542 67.2396 455.781 67.625 453.781 67.625C452.115 67.625 450.583 67.3958 449.188 66.9375C447.812 66.4583 446.625 65.7188 445.625 64.7188C444.625 63.6979 443.844 62.3958 443.281 60.8125C442.74 59.2083 442.469 57.2917 442.469 55.0625V33.1875H453V55.125C453 55.875 453.094 56.5208 453.281 57.0625C453.469 57.6042 453.74 58.0625 454.094 58.4375C454.448 58.7917 454.885 59.0625 455.406 59.25C455.948 59.4167 456.562 59.5 457.25 59.5C458.833 59.5 460.073 59.1667 460.969 58.5C461.865 57.8333 462.49 56.9271 462.844 55.7812C463.219 54.6354 463.406 53.3438 463.406 51.9062ZM489.406 41.5625V67H478.875V33.1875H488.719L489.406 41.5625ZM499.406 32.9375L499.219 42.7188C498.802 42.6771 498.24 42.625 497.531 42.5625C496.823 42.5 496.229 42.4688 495.75 42.4688C494.521 42.4688 493.458 42.6146 492.562 42.9062C491.688 43.1771 490.958 43.5938 490.375 44.1562C489.812 44.6979 489.396 45.3854 489.125 46.2188C488.875 47.0521 488.76 48.0208 488.781 49.125L486.875 47.875C486.875 45.6042 487.094 43.5417 487.531 41.6875C487.99 39.8125 488.635 38.1979 489.469 36.8438C490.302 35.4688 491.312 34.4167 492.5 33.6875C493.688 32.9375 495.021 32.5625 496.5 32.5625C497.021 32.5625 497.531 32.5938 498.031 32.6562C498.552 32.7188 499.01 32.8125 499.406 32.9375ZM520.75 57.5C520.75 56.9167 520.552 56.4167 520.156 56C519.781 55.5625 519.115 55.1667 518.156 54.8125C517.198 54.4375 515.854 54.0625 514.125 53.6875C512.479 53.3333 510.927 52.8646 509.469 52.2812C508.031 51.6979 506.771 50.9896 505.688 50.1562C504.604 49.3229 503.75 48.3333 503.125 47.1875C502.521 46.0417 502.219 44.7292 502.219 43.25C502.219 41.8125 502.521 40.4583 503.125 39.1875C503.75 37.8958 504.656 36.7604 505.844 35.7812C507.052 34.7812 508.521 34 510.25 33.4375C511.979 32.8542 513.948 32.5625 516.156 32.5625C519.198 32.5625 521.823 33.0312 524.031 33.9688C526.24 34.8854 527.938 36.1771 529.125 37.8438C530.333 39.4896 530.938 41.3958 530.938 43.5625H520.406C520.406 42.7083 520.26 41.9792 519.969 41.375C519.698 40.7708 519.25 40.3125 518.625 40C518 39.6667 517.167 39.5 516.125 39.5C515.396 39.5 514.729 39.6354 514.125 39.9062C513.542 40.1771 513.073 40.5521 512.719 41.0312C512.365 41.5104 512.188 42.0729 512.188 42.7188C512.188 43.1771 512.292 43.5938 512.5 43.9688C512.729 44.3229 513.073 44.6562 513.531 44.9688C513.99 45.2604 514.573 45.5312 515.281 45.7812C515.99 46.0104 516.844 46.2188 517.844 46.4062C520.115 46.8229 522.24 47.4167 524.219 48.1875C526.198 48.9583 527.802 50.0521 529.031 51.4688C530.281 52.8854 530.906 54.7917 530.906 57.1875C530.906 58.6875 530.562 60.0729 529.875 61.3438C529.188 62.5938 528.198 63.6979 526.906 64.6562C525.615 65.5938 524.062 66.3229 522.25 66.8438C520.438 67.3646 518.396 67.625 516.125 67.625C512.896 67.625 510.167 67.0521 507.938 65.9062C505.708 64.7396 504.021 63.2812 502.875 61.5312C501.75 59.7604 501.188 57.9688 501.188 56.1562H511C511.042 57.1979 511.292 58.0521 511.75 58.7188C512.229 59.3854 512.865 59.875 513.656 60.1875C514.448 60.5 515.365 60.6562 516.406 60.6562C517.365 60.6562 518.156 60.5208 518.781 60.25C519.427 59.9792 519.917 59.6146 520.25 59.1562C520.583 58.6771 520.75 58.125 520.75 57.5Z" fill="#FDA942"/>
<g clip-path="url(#clip1_286_1893)">
<path d="M85.7932 30.0317C84.4649 28.9382 82.8986 28.1156 81.2427 27.7311C75.7919 26.707 69.2116 29.1948 65.3516 33.335C53.1588 39.6043 58.611 58.0207 69.5663 61.8145C71.8605 62.6492 74.1667 62.7559 76.3693 62.4763C77.5872 62.7712 78.7791 62.9694 79.8934 62.8779C94.3222 62.6352 97.987 35.3572 85.7932 30.0317ZM84.2343 35.4187C90.4015 42.9802 86.6682 56.0933 77.0917 57.8311C76.2413 57.7484 75.3391 57.4724 74.437 57.1965C69.2173 55.4893 66.8815 52.1812 66.4498 46.7063C66.2667 44.4778 66.1475 41.7145 66.9373 39.6394C69.2033 33.0276 79.7249 29.7942 84.2343 35.4187Z" fill="#FBB03B"/>
<path d="M103.24 21.7333C103.207 21.2244 102.762 20.7225 102.298 20.5363C89.3468 17.7948 75.339 19.9952 62.2505 20.6035C57.9865 20.9178 53.7674 21.0131 49.5742 21.2049L49.6449 21.0824C49.9138 19.768 49.9138 19.768 49.8413 18.3381C49.8015 17.417 48.9442 16.922 48.0749 17.1549C44.8356 17.8158 41.7825 18.0127 38.6069 18.1389C35.9402 18.2323 32.9648 18.719 30.4326 18.1552C29.3373 17.931 28.4818 18.9885 28.7665 20.051C29.103 21.3067 29.555 22.2208 30.1553 23.3023C27.8819 23.7044 25.6603 24.2997 23.368 25.0175C22.402 25.2763 22.2227 26.1525 22.4298 26.9253C19.5437 42.8136 21.8065 60.5317 24.209 76.4524C24.2418 76.9612 24.661 77.3666 25.1698 77.3337C51.7245 74.049 78.5828 71.511 105.314 70.0426C105.822 70.0097 106.298 69.4681 106.266 68.9592C105.029 53.1402 103.529 37.4954 103.24 21.7333ZM31.7697 21.2133C34.1018 21.4166 36.4976 21.0853 38.7262 20.9022C41.5602 20.6605 44.3942 20.4188 47.1506 19.8873C47.2282 20.177 47.3058 20.4668 47.5577 21.0205L47.5836 21.1171C42.2761 21.4004 36.8979 21.8062 31.6749 22.7916C31.8612 22.3276 31.8284 21.8187 31.7697 21.2133ZM33.7148 74.8371C31.8985 75.0132 27.8157 76.0036 26.365 74.8394C24.9142 73.6752 25.1088 69.3785 24.9068 67.4656C24.6202 64.8506 24.4303 62.2098 24.2403 59.569C23.6736 48.954 24.3696 38.4147 23.9254 27.8704C24.022 27.8445 24.1186 27.8186 24.3117 27.7669C29.3794 26.2019 34.5505 25.0234 39.7994 24.1346C39.6649 24.7918 39.7425 25.0816 40.0203 25.7319C40.3263 33.8285 41.7207 41.7371 42.2458 49.8786C42.4824 53.8528 42.7191 57.827 42.9816 61.8977C43.2183 65.8719 42.7081 70.1497 43.6209 73.9427C42.9188 74.0273 42.2168 74.1119 41.4889 74.0999C38.874 74.3864 36.3297 74.5505 33.7148 74.8371ZM44.5161 73.8064C44.8918 70.1857 43.979 66.3928 43.8459 62.805C43.6282 58.5151 43.3846 54.1287 43.1669 49.8389C42.7056 41.1626 43.2878 32.5174 42.5109 23.8222C56.3514 21.7701 70.8061 21.6239 84.5588 21.5624C86.7166 21.5018 88.9004 21.5379 91.11 21.6705C92.5917 21.7911 98.653 21.6164 100.007 22.8064C101.755 24.3052 101.108 27.6878 101.265 29.8198C101.359 32.4865 101.523 35.0307 101.713 37.6715C102.369 47.8484 103.025 58.0253 104.261 68.0469C84.2887 70.3963 64.3282 72.0177 44.5161 73.8064Z" fill="white"/>
<path d="M84.0436 26.9803C77.7734 24.8299 71.9002 26.093 67.2984 29.3966C63.371 30.9666 60.3355 35.0928 58.7489 38.8308C56.3655 44.2317 56.354 50.7571 59.2075 55.9971C62.0868 61.3337 67.8052 65.2884 73.97 65.5001C79.5036 65.6738 87.231 63.6032 90.6718 59.0578C98.2156 48.9613 97.3638 31.4863 84.0436 26.9803ZM90.2729 54.0918C85.7372 64.2105 69.8216 65.4728 63.08 56.9265C59.7574 52.6404 59.0738 46.6119 60.5102 41.1541C64.3337 33.4004 72.1849 27.1555 81.1667 28.9935C93.2154 31.4591 94.5516 44.5596 90.2729 54.0918Z" fill="white"/>
<path d="M70.1968 34.4176C63.6802 36.3708 61.3681 47.4466 64.6338 52.6797C68.8224 59.4254 79.1546 59.3486 84.6756 54.4529C90.5312 49.2604 90.5598 40.867 85.6571 34.9337C80.6837 29.123 74.469 30.2706 70.1968 34.4176ZM70.5351 37.2257C70.7024 37.0774 70.8697 36.929 71.037 36.7807C71.8615 36.7668 72.6671 37.0686 73.2346 37.6412C74.3438 38.6898 74.6234 40.8925 72.9106 41.455C70.1871 42.4953 69.3778 39.0887 70.5351 37.2257ZM75.8145 51.1332C71.2159 51.7442 71.6346 46.3521 73.5956 43.2385C73.8405 43.3799 74.1562 43.3989 74.4908 43.1021C78.037 40.4955 82.4933 50.1718 75.8145 51.1332Z" fill="white"/>
<path d="M42.5119 72.8941C41.0491 72.4578 39.7088 72.0922 38.3616 71.3144C38.2391 71.2437 38.1684 71.3662 38.1943 71.4628C39.3035 72.5114 40.7991 73.4565 42.3774 73.5513C42.7896 73.5443 42.8275 72.913 42.5119 72.8941Z" fill="white"/>
<path d="M39.4104 70.2051C40.0935 70.4362 41.0474 70.9053 41.846 70.7948C42.0392 70.7431 42.1806 70.4981 41.9357 70.3567C41.2974 69.9066 40.2797 69.9722 39.526 69.8636C39.2103 69.8447 39.1913 70.1603 39.4104 70.2051Z" fill="white"/>
<path d="M41.2416 66.6087C41.3123 66.4863 41.2605 66.2931 41.1639 66.319C40.6292 66.2552 40.2428 66.3587 39.7529 66.0759C39.4821 65.8379 39.1734 66.2312 39.4442 66.4692C39.8375 66.7779 40.7914 67.247 41.2416 66.6087Z" fill="white"/>
<path d="M38.1665 48.1765C38.2114 47.9575 37.9923 47.9126 37.825 48.061C37.5611 48.2352 37.2006 48.4353 36.8591 48.3198C36.395 48.1335 36.1381 48.72 36.5055 48.9322C37.1886 49.1632 38.1545 48.9044 38.1665 48.1765Z" fill="white"/>
<path d="M96.8232 64.2426C96.4299 63.9338 95.94 63.651 95.4501 63.3682C95.2311 63.3233 95.0638 63.4717 95.2121 63.639C95.5347 64.0702 95.8573 64.5014 96.2506 64.8101C96.6698 65.2154 96.9924 65.6466 97.4564 65.8329C97.798 65.9484 98.1326 65.6517 97.9324 65.2912C97.7323 64.9307 97.2165 64.5513 96.8232 64.2426Z" fill="white"/>
<path d="M98.4892 62.3466C98.2184 62.1086 97.9217 61.774 97.7216 61.4135C97.5214 61.053 97.0644 61.279 97.142 61.5688C97.4457 62.3157 98.046 63.3971 99.0119 63.1383C99.1085 63.1124 99.1792 62.9899 99.1534 62.8934C98.9791 62.6295 98.7342 62.488 98.4892 62.3466Z" fill="white"/>
<path d="M46.7685 28.8931C46.4718 28.5585 46.1751 28.2239 45.8784 27.8893C45.5817 27.5547 45.1764 27.9739 45.254 28.2637C45.5577 29.0105 46.3064 30.2593 47.2275 30.2196C47.4207 30.1678 47.4914 30.0453 47.4396 29.8521C47.3361 29.4658 47.0394 29.1312 46.7685 28.8931Z" fill="white"/>
<path d="M48.0482 27.1007C47.7773 26.8627 47.372 27.2819 47.6428 27.5199C47.9137 27.7579 48.2811 27.97 48.5519 28.208C48.8228 28.4461 49.0936 28.6841 49.4351 28.7996C49.6801 28.941 50.0147 28.6443 49.8405 28.3804C49.3954 27.8785 48.6605 27.4543 48.0482 27.1007Z" fill="white"/>
<path d="M96.0854 29.0338C95.7439 28.9182 95.4611 29.4081 95.8285 29.6203C96.6599 30.0186 97.6397 30.5843 98.4901 30.667C98.7092 30.7119 98.9213 30.3445 98.773 30.1771C98.0122 29.6563 96.9169 29.4321 96.0854 29.0338Z" fill="white"/>
<path d="M96.7146 27.5193C97.2942 27.364 97.8548 27.5243 98.3895 27.5881C98.6086 27.6329 98.6276 27.3173 98.5051 27.2466C97.9634 26.7705 97.1389 26.7844 96.4628 26.9656C96.0764 27.0691 96.3283 27.6228 96.7146 27.5193Z" fill="white"/>
</g>
</g>
<defs>
<clipPath id="clip0_286_1893">
<rect width="551" height="91" fill="white"/>
</clipPath>
<clipPath id="clip1_286_1893">
<rect width="90.5" height="69.7" fill="white" transform="translate(10 23.4231) rotate(-15)"/>
</clipPath>
</defs>
</svg>