<svg width="551" height="91" viewBox="0 0 551 91" fill="none" xmlns="http://www.w3.org/2000/svg">
<g clip-path="url(#clip0_176_314)">
<path d="M151.344 51.5938H162.281C162.135 54.7604 161.281 57.5521 159.719 59.9688C158.156 62.3854 155.99 64.2708 153.219 65.625C150.469 66.9583 147.219 67.625 143.469 67.625C140.427 67.625 137.708 67.1146 135.312 66.0938C132.938 65.0729 130.917 63.6042 129.25 61.6875C127.604 59.7708 126.344 57.4479 125.469 54.7188C124.615 51.9896 124.188 48.9167 124.188 45.5V43.0312C124.188 39.6146 124.635 36.5417 125.531 33.8125C126.448 31.0625 127.74 28.7292 129.406 26.8125C131.094 24.875 133.115 23.3958 135.469 22.375C137.823 21.3542 140.438 20.8438 143.312 20.8438C147.271 20.8438 150.615 21.5521 153.344 22.9688C156.073 24.3854 158.188 26.3333 159.688 28.8125C161.188 31.2708 162.073 34.0729 162.344 37.2188H151.406C151.365 35.5104 151.073 34.0833 150.531 32.9375C149.99 31.7708 149.135 30.8958 147.969 30.3125C146.802 29.7292 145.25 29.4375 143.312 29.4375C141.958 29.4375 140.781 29.6875 139.781 30.1875C138.781 30.6875 137.948 31.4792 137.281 32.5625C136.615 33.6458 136.115 35.0521 135.781 36.7812C135.469 38.4896 135.312 40.5521 135.312 42.9688V45.5C135.312 47.9167 135.458 49.9792 135.75 51.6875C136.042 53.3958 136.51 54.7917 137.156 55.875C137.802 56.9583 138.635 57.7604 139.656 58.2812C140.698 58.7812 141.969 59.0312 143.469 59.0312C145.135 59.0312 146.542 58.7708 147.688 58.25C148.833 57.7083 149.719 56.8958 150.344 55.8125C150.969 54.7083 151.302 53.3021 151.344 51.5938ZM178.094 33.1875V67H167.531V33.1875H178.094ZM166.906 24.4688C166.906 22.9688 167.448 21.7396 168.531 20.7812C169.615 19.8229 171.021 19.3438 172.75 19.3438C174.479 19.3438 175.885 19.8229 176.969 20.7812C178.052 21.7396 178.594 22.9688 178.594 24.4688C178.594 25.9688 178.052 27.1979 176.969 28.1562C175.885 29.1146 174.479 29.5938 172.75 29.5938C171.021 29.5938 169.615 29.1146 168.531 28.1562C167.448 27.1979 166.906 25.9688 166.906 24.4688ZM195.719 19V67H185.156V19H195.719ZM219.781 58.5V44.5625C219.781 43.6042 219.646 42.7812 219.375 42.0938C219.104 41.4062 218.677 40.875 218.094 40.5C217.51 40.1042 216.729 39.9062 215.75 39.9062C214.958 39.9062 214.281 40.0417 213.719 40.3125C213.156 40.5833 212.729 40.9896 212.438 41.5312C212.146 42.0729 212 42.7604 212 43.5938H201.469C201.469 42.0312 201.812 40.5833 202.5 39.25C203.208 37.8958 204.208 36.7188 205.5 35.7188C206.812 34.7188 208.375 33.9479 210.188 33.4062C212.021 32.8438 214.062 32.5625 216.312 32.5625C219 32.5625 221.396 33.0104 223.5 33.9062C225.625 34.8021 227.302 36.1458 228.531 37.9375C229.76 39.7083 230.375 41.9375 230.375 44.625V58.4688C230.375 60.6771 230.5 62.3542 230.75 63.5C231 64.625 231.354 65.6146 231.812 66.4688V67H221.25C220.75 65.9583 220.375 64.6875 220.125 63.1875C219.896 61.6667 219.781 60.1042 219.781 58.5ZM221.062 46.3438L221.125 51.9688H216.469C215.49 51.9688 214.656 52.1042 213.969 52.375C213.302 52.6458 212.76 53.0208 212.344 53.5C211.948 53.9583 211.656 54.4792 211.469 55.0625C211.302 55.6458 211.219 56.2604 211.219 56.9062C211.219 57.5312 211.365 58.0938 211.656 58.5938C211.969 59.0729 212.385 59.4479 212.906 59.7188C213.427 59.9896 214.01 60.125 214.656 60.125C215.823 60.125 216.812 59.9062 217.625 59.4688C218.458 59.0104 219.094 58.4583 219.531 57.8125C219.969 57.1667 220.188 56.5625 220.188 56L222.5 60.3125C222.083 61.1458 221.604 61.9896 221.062 62.8438C220.542 63.6979 219.885 64.4896 219.094 65.2188C218.323 65.9271 217.375 66.5104 216.25 66.9688C215.125 67.4062 213.76 67.625 212.156 67.625C210.073 67.625 208.156 67.1979 206.406 66.3438C204.677 65.4896 203.292 64.3021 202.25 62.7812C201.208 61.2396 200.688 59.4688 200.688 57.4688C200.688 55.7188 201 54.1562 201.625 52.7812C202.271 51.4062 203.24 50.2396 204.531 49.2812C205.823 48.3229 207.469 47.5938 209.469 47.0938C211.469 46.5938 213.823 46.3438 216.531 46.3438H221.062ZM246.562 40.4062V67H236.031V33.1875H245.906L246.562 40.4062ZM245.312 48.9375L242.844 49C242.844 46.4167 243.156 44.1146 243.781 42.0938C244.406 40.0521 245.292 38.3229 246.438 36.9062C247.583 35.4896 248.948 34.4167 250.531 33.6875C252.135 32.9375 253.917 32.5625 255.875 32.5625C257.438 32.5625 258.865 32.7917 260.156 33.25C261.469 33.7083 262.594 34.4479 263.531 35.4688C264.49 36.4896 265.219 37.8438 265.719 39.5312C266.24 41.1979 266.5 43.2604 266.5 45.7188V67H255.906V45.6875C255.906 44.3333 255.719 43.3021 255.344 42.5938C254.969 41.8646 254.427 41.3646 253.719 41.0938C253.01 40.8229 252.146 40.6875 251.125 40.6875C250.042 40.6875 249.125 40.8958 248.375 41.3125C247.625 41.7292 247.021 42.3125 246.562 43.0625C246.125 43.7917 245.802 44.6562 245.594 45.6562C245.406 46.6562 245.312 47.75 245.312 48.9375ZM290.156 33.1875V40.5H269.781V33.1875H290.156ZM274.062 24.7812H284.594V55.9688C284.594 56.8646 284.698 57.5625 284.906 58.0625C285.115 58.5417 285.469 58.8854 285.969 59.0938C286.49 59.2812 287.177 59.375 288.031 59.375C288.635 59.375 289.135 59.3646 289.531 59.3438C289.927 59.3021 290.302 59.25 290.656 59.1875V66.7188C289.76 67.0104 288.823 67.2292 287.844 67.375C286.865 67.5417 285.823 67.625 284.719 67.625C282.469 67.625 280.542 67.2708 278.938 66.5625C277.354 65.8542 276.146 64.7396 275.312 63.2188C274.479 61.6979 274.062 59.7188 274.062 57.2812V24.7812ZM304.969 41.5625V67H294.438V33.1875H304.281L304.969 41.5625ZM314.969 32.9375L314.781 42.7188C314.365 42.6771 313.802 42.625 313.094 42.5625C312.385 42.5 311.792 42.4688 311.312 42.4688C310.083 42.4688 309.021 42.6146 308.125 42.9062C307.25 43.1771 306.521 43.5938 305.938 44.1562C305.375 44.6979 304.958 45.3854 304.688 46.2188C304.438 47.0521 304.323 48.0208 304.344 49.125L302.438 47.875C302.438 45.6042 302.656 43.5417 303.094 41.6875C303.552 39.8125 304.198 38.1979 305.031 36.8438C305.865 35.4688 306.875 34.4167 308.062 33.6875C309.25 32.9375 310.583 32.5625 312.062 32.5625C312.583 32.5625 313.094 32.5938 313.594 32.6562C314.115 32.7188 314.573 32.8125 314.969 32.9375ZM316.156 50.4375V49.7812C316.156 47.3021 316.51 45.0208 317.219 42.9375C317.927 40.8333 318.969 39.0104 320.344 37.4688C321.719 35.9271 323.417 34.7292 325.438 33.875C327.458 33 329.792 32.5625 332.438 32.5625C335.104 32.5625 337.448 33 339.469 33.875C341.51 34.7292 343.219 35.9271 344.594 37.4688C345.969 39.0104 347.01 40.8333 347.719 42.9375C348.427 45.0208 348.781 47.3021 348.781 49.7812V50.4375C348.781 52.8958 348.427 55.1771 347.719 57.2812C347.01 59.3646 345.969 61.1875 344.594 62.75C343.219 64.2917 341.521 65.4896 339.5 66.3438C337.479 67.1979 335.146 67.625 332.5 67.625C329.854 67.625 327.51 67.1979 325.469 66.3438C323.427 65.4896 321.719 64.2917 320.344 62.75C318.969 61.1875 317.927 59.3646 317.219 57.2812C316.51 55.1771 316.156 52.8958 316.156 50.4375ZM326.688 49.7812V50.4375C326.688 51.7083 326.781 52.8958 326.969 54C327.156 55.1042 327.469 56.0729 327.906 56.9062C328.344 57.7188 328.938 58.3542 329.688 58.8125C330.438 59.2708 331.375 59.5 332.5 59.5C333.604 59.5 334.521 59.2708 335.25 58.8125C336 58.3542 336.594 57.7188 337.031 56.9062C337.469 56.0729 337.781 55.1042 337.969 54C338.156 52.8958 338.25 51.7083 338.25 50.4375V49.7812C338.25 48.5521 338.156 47.3958 337.969 46.3125C337.781 45.2083 337.469 44.2396 337.031 43.4062C336.594 42.5521 336 41.8854 335.25 41.4062C334.5 40.9271 333.562 40.6875 332.438 40.6875C331.333 40.6875 330.406 40.9271 329.656 41.4062C328.927 41.8854 328.344 42.5521 327.906 43.4062C327.469 44.2396 327.156 45.2083 326.969 46.3125C326.781 47.3958 326.688 48.5521 326.688 49.7812ZM354.156 62.0625C354.156 60.5625 354.698 59.3125 355.781 58.3125C356.865 57.2917 358.26 56.7812 359.969 56.7812C361.698 56.7812 363.094 57.2917 364.156 58.3125C365.24 59.3125 365.781 60.5625 365.781 62.0625C365.781 63.5625 365.24 64.8229 364.156 65.8438C363.094 66.8438 361.698 67.3438 359.969 67.3438C358.26 67.3438 356.865 66.8438 355.781 65.8438C354.698 64.8229 354.156 63.5625 354.156 62.0625Z" fill="#373737"/>
<path d="M395.375 21.5V67H384.406V21.5H395.375ZM409.062 21.5V29.9688H371.031V21.5H409.062ZM405.344 50.4375V49.7812C405.344 47.3021 405.698 45.0208 406.406 42.9375C407.115 40.8333 408.156 39.0104 409.531 37.4688C410.906 35.9271 412.604 34.7292 414.625 33.875C416.646 33 418.979 32.5625 421.625 32.5625C424.292 32.5625 426.635 33 428.656 33.875C430.698 34.7292 432.406 35.9271 433.781 37.4688C435.156 39.0104 436.198 40.8333 436.906 42.9375C437.615 45.0208 437.969 47.3021 437.969 49.7812V50.4375C437.969 52.8958 437.615 55.1771 436.906 57.2812C436.198 59.3646 435.156 61.1875 433.781 62.75C432.406 64.2917 430.708 65.4896 428.688 66.3438C426.667 67.1979 424.333 67.625 421.688 67.625C419.042 67.625 416.698 67.1979 414.656 66.3438C412.615 65.4896 410.906 64.2917 409.531 62.75C408.156 61.1875 407.115 59.3646 406.406 57.2812C405.698 55.1771 405.344 52.8958 405.344 50.4375ZM415.875 49.7812V50.4375C415.875 51.7083 415.969 52.8958 416.156 54C416.344 55.1042 416.656 56.0729 417.094 56.9062C417.531 57.7188 418.125 58.3542 418.875 58.8125C419.625 59.2708 420.562 59.5 421.688 59.5C422.792 59.5 423.708 59.2708 424.438 58.8125C425.188 58.3542 425.781 57.7188 426.219 56.9062C426.656 56.0729 426.969 55.1042 427.156 54C427.344 52.8958 427.438 51.7083 427.438 50.4375V49.7812C427.438 48.5521 427.344 47.3958 427.156 46.3125C426.969 45.2083 426.656 44.2396 426.219 43.4062C425.781 42.5521 425.188 41.8854 424.438 41.4062C423.688 40.9271 422.75 40.6875 421.625 40.6875C420.521 40.6875 419.594 40.9271 418.844 41.4062C418.115 41.8854 417.531 42.5521 417.094 43.4062C416.656 44.2396 416.344 45.2083 416.156 46.3125C415.969 47.3958 415.875 48.5521 415.875 49.7812ZM462.406 58.7812V33.1875H472.969V67H463.094L462.406 58.7812ZM463.406 51.9062L466.156 51.8438C466.156 54.1146 465.885 56.2188 465.344 58.1562C464.802 60.0729 464 61.7396 462.938 63.1562C461.896 64.5729 460.604 65.6771 459.062 66.4688C457.542 67.2396 455.781 67.625 453.781 67.625C452.115 67.625 450.583 67.3958 449.188 66.9375C447.812 66.4583 446.625 65.7188 445.625 64.7188C444.625 63.6979 443.844 62.3958 443.281 60.8125C442.74 59.2083 442.469 57.2917 442.469 55.0625V33.1875H453V55.125C453 55.875 453.094 56.5208 453.281 57.0625C453.469 57.6042 453.74 58.0625 454.094 58.4375C454.448 58.7917 454.885 59.0625 455.406 59.25C455.948 59.4167 456.562 59.5 457.25 59.5C458.833 59.5 460.073 59.1667 460.969 58.5C461.865 57.8333 462.49 56.9271 462.844 55.7812C463.219 54.6354 463.406 53.3438 463.406 51.9062ZM489.406 41.5625V67H478.875V33.1875H488.719L489.406 41.5625ZM499.406 32.9375L499.219 42.7188C498.802 42.6771 498.24 42.625 497.531 42.5625C496.823 42.5 496.229 42.4688 495.75 42.4688C494.521 42.4688 493.458 42.6146 492.562 42.9062C491.688 43.1771 490.958 43.5938 490.375 44.1562C489.812 44.6979 489.396 45.3854 489.125 46.2188C488.875 47.0521 488.76 48.0208 488.781 49.125L486.875 47.875C486.875 45.6042 487.094 43.5417 487.531 41.6875C487.99 39.8125 488.635 38.1979 489.469 36.8438C490.302 35.4688 491.312 34.4167 492.5 33.6875C493.688 32.9375 495.021 32.5625 496.5 32.5625C497.021 32.5625 497.531 32.5938 498.031 32.6562C498.552 32.7188 499.01 32.8125 499.406 32.9375ZM520.75 57.5C520.75 56.9167 520.552 56.4167 520.156 56C519.781 55.5625 519.115 55.1667 518.156 54.8125C517.198 54.4375 515.854 54.0625 514.125 53.6875C512.479 53.3333 510.927 52.8646 509.469 52.2812C508.031 51.6979 506.771 50.9896 505.688 50.1562C504.604 49.3229 503.75 48.3333 503.125 47.1875C502.521 46.0417 502.219 44.7292 502.219 43.25C502.219 41.8125 502.521 40.4583 503.125 39.1875C503.75 37.8958 504.656 36.7604 505.844 35.7812C507.052 34.7812 508.521 34 510.25 33.4375C511.979 32.8542 513.948 32.5625 516.156 32.5625C519.198 32.5625 521.823 33.0312 524.031 33.9688C526.24 34.8854 527.938 36.1771 529.125 37.8438C530.333 39.4896 530.938 41.3958 530.938 43.5625H520.406C520.406 42.7083 520.26 41.9792 519.969 41.375C519.698 40.7708 519.25 40.3125 518.625 40C518 39.6667 517.167 39.5 516.125 39.5C515.396 39.5 514.729 39.6354 514.125 39.9062C513.542 40.1771 513.073 40.5521 512.719 41.0312C512.365 41.5104 512.188 42.0729 512.188 42.7188C512.188 43.1771 512.292 43.5938 512.5 43.9688C512.729 44.3229 513.073 44.6562 513.531 44.9688C513.99 45.2604 514.573 45.5312 515.281 45.7812C515.99 46.0104 516.844 46.2188 517.844 46.4062C520.115 46.8229 522.24 47.4167 524.219 48.1875C526.198 48.9583 527.802 50.0521 529.031 51.4688C530.281 52.8854 530.906 54.7917 530.906 57.1875C530.906 58.6875 530.562 60.0729 529.875 61.3438C529.188 62.5938 528.198 63.6979 526.906 64.6562C525.615 65.5938 524.062 66.3229 522.25 66.8438C520.438 67.3646 518.396 67.625 516.125 67.625C512.896 67.625 510.167 67.0521 507.938 65.9062C505.708 64.7396 504.021 63.2812 502.875 61.5312C501.75 59.7604 501.188 57.9688 501.188 56.1562H511C511.042 57.1979 511.292 58.0521 511.75 58.7188C512.229 59.3854 512.865 59.875 513.656 60.1875C514.448 60.5 515.365 60.6562 516.406 60.6562C517.365 60.6562 518.156 60.5208 518.781 60.25C519.427 59.9792 519.917 59.6146 520.25 59.1562C520.583 58.6771 520.75 58.125 520.75 57.5Z" fill="#FDA942"/>
<g clip-path="url(#clip1_176_314)">
<path d="M85.7912 30.031C84.463 28.9375 82.8967 28.1149 81.2407 27.7304C75.7899 26.7062 69.2096 29.1941 65.3496 33.3342C53.1568 39.6036 58.6091 58.0199 69.5643 61.8138C71.8585 62.6485 74.1647 62.7552 76.3674 62.4756C77.5852 62.7704 78.7771 62.9687 79.8914 62.8772C94.3202 62.6345 97.9851 35.3565 85.7912 30.031ZM84.2324 35.418C90.3996 42.9795 86.6663 56.0925 77.0897 57.8303C76.2393 57.7476 75.3372 57.4717 74.435 57.1958C69.2153 55.4886 66.8795 52.1804 66.4478 46.7056C66.2648 44.477 66.1455 41.7138 66.9354 39.6386C69.2013 33.0269 79.723 29.7935 84.2324 35.418Z" fill="#FBB03B"/>
<path d="M103.238 21.7328C103.205 21.2239 102.76 20.722 102.296 20.5358C89.3453 17.7943 75.3375 19.9947 62.249 20.603C57.985 20.9173 53.7659 21.0126 49.5727 21.2044L49.6434 21.0819C49.9124 19.7675 49.9124 19.7675 49.8398 18.3376C49.8001 17.4165 48.9427 16.9215 48.0734 17.1544C44.8341 17.8154 41.781 18.0123 38.6055 18.1385C35.9388 18.2318 32.9634 18.7185 30.4311 18.1547C29.3358 17.9305 28.4803 18.988 28.765 20.0505C29.1015 21.3062 29.5535 22.2204 30.1539 23.3018C27.8805 23.7039 25.6589 24.2992 23.3665 25.017C22.4006 25.2758 22.2213 26.1521 22.4283 26.9248C19.5422 42.8132 21.8051 60.5312 24.2075 76.4519C24.2403 76.9607 24.6595 77.3661 25.1684 77.3332C51.723 74.0485 78.5813 71.5105 105.312 70.0421C105.821 70.0093 106.297 69.4676 106.264 68.9588C105.028 53.1397 103.527 37.495 103.238 21.7328ZM31.7682 21.2128C34.1003 21.4162 36.4962 21.0848 38.7247 20.9017C41.5587 20.66 44.3927 20.4183 47.1491 19.8868C47.2267 20.1766 47.3044 20.4663 47.5563 21.02L47.5822 21.1166C42.2746 21.3999 36.8964 21.8058 31.6735 22.7911C31.8597 22.3271 31.8269 21.8183 31.7682 21.2128ZM33.7133 74.8366C31.897 75.0127 27.8143 76.0031 26.3635 74.8389C24.9128 73.6747 25.1073 69.378 24.9053 67.4651C24.6188 64.8501 24.4288 62.2093 24.2388 59.5685C23.6721 48.9535 24.3681 38.4142 23.9239 27.8699C24.0205 27.844 24.1171 27.8181 24.3103 27.7664C29.3779 26.2015 34.5491 25.0229 39.7979 24.1341C39.6634 24.7913 39.7411 25.0811 40.0188 25.7314C40.3248 33.8281 41.7192 41.7366 42.2443 49.8782C42.481 53.8523 42.7176 57.8265 42.9801 61.8972C43.2168 65.8714 42.7066 70.1492 43.6194 73.9422C42.9174 74.0268 42.2153 74.1114 41.4874 74.0994C38.8725 74.3859 36.3283 74.55 33.7133 74.8366ZM44.5146 73.8059C44.8903 70.1853 43.9775 66.3923 43.8444 62.8045C43.6267 58.5146 43.3831 54.1282 43.1654 49.8384C42.7041 41.1622 43.2864 32.5169 42.5094 23.8217C56.3499 21.7696 70.8046 21.6234 84.5573 21.5619C86.7151 21.5013 88.8989 21.5374 91.1085 21.67C92.5902 21.7906 98.6515 21.6159 100.006 22.806C101.753 24.3047 101.107 27.6873 101.264 29.8193C101.357 32.486 101.521 35.0302 101.711 37.6711C102.367 47.848 103.024 58.0248 104.26 68.0464C84.2872 70.3958 64.3267 72.0172 44.5146 73.8059Z" fill="#373737"/>
<path d="M84.0451 26.9803C77.7749 24.8299 71.9017 26.093 67.2999 29.3966C63.3724 30.9666 60.3369 35.0928 58.7504 38.8308C56.367 44.2317 56.3555 50.7571 59.2089 55.9971C62.0883 61.3337 67.8067 65.2884 73.9715 65.5001C79.505 65.6738 87.2324 63.6032 90.6732 59.0578C98.2171 48.9613 97.3652 31.4863 84.0451 26.9803ZM90.2743 54.0918C85.7387 64.2105 69.8231 65.4728 63.0814 56.9265C59.7589 52.6404 59.0753 46.6119 60.5117 41.1541C64.3351 33.4004 72.1864 27.1555 81.1681 28.9935C93.2168 31.4591 94.553 44.5596 90.2743 54.0918Z" fill="#373737"/>
<path d="M70.1968 34.4171C63.6802 36.3703 61.3681 47.4461 64.6338 52.6792C68.8224 59.4249 79.1546 59.3482 84.6756 54.4524C90.5312 49.2599 90.5598 40.8665 85.6571 34.9333C80.6837 29.1225 74.469 30.2701 70.1968 34.4171ZM70.5351 37.2252C70.7024 37.0769 70.8697 36.9285 71.037 36.7802C71.8615 36.7663 72.6671 37.0681 73.2346 37.6407C74.3438 38.6894 74.6234 40.892 72.9106 41.4545C70.1871 42.4949 69.3778 39.0882 70.5351 37.2252ZM75.8145 51.1327C71.2159 51.7437 71.6346 46.3516 73.5956 43.238C73.8405 43.3794 74.1562 43.3984 74.4908 43.1017C78.037 40.495 82.4933 50.1714 75.8145 51.1327Z" fill="#373737"/>
<path d="M42.5104 72.8941C41.0477 72.4578 39.7074 72.0922 38.3602 71.3144C38.2377 71.2437 38.167 71.3662 38.1929 71.4628C39.3021 72.5114 40.7976 73.4565 42.3759 73.5513C42.7882 73.5443 42.8261 72.913 42.5104 72.8941Z" fill="#373737"/>
<path d="M39.4099 70.2051C40.093 70.4362 41.0469 70.9053 41.8455 70.7948C42.0387 70.7431 42.1802 70.4981 41.9352 70.3567C41.2969 69.9066 40.2793 69.9722 39.5255 69.8636C39.2098 69.8447 39.1909 70.1603 39.4099 70.2051Z" fill="#373737"/>
<path d="M41.2411 66.6085C41.3118 66.486 41.26 66.2928 41.1634 66.3187C40.6287 66.255 40.2423 66.3585 39.7524 66.0756C39.4816 65.8376 39.1729 66.2309 39.4437 66.4689C39.837 66.7777 40.7909 67.2468 41.2411 66.6085Z" fill="#373737"/>
<path d="M38.1655 48.1763C38.2104 47.9572 37.9913 47.9124 37.824 48.0607C37.5601 48.235 37.1996 48.4351 36.8581 48.3196C36.3941 48.1333 36.1371 48.7198 36.5045 48.9319C37.1876 49.163 38.1535 48.9042 38.1655 48.1763Z" fill="#373737"/>
<path d="M96.8237 64.2418C96.4304 63.9331 95.9405 63.6503 95.4506 63.3674C95.2316 63.3226 95.0643 63.471 95.2126 63.6383C95.5352 64.0695 95.8578 64.5007 96.2511 64.8094C96.6703 65.2147 96.9929 65.6459 97.4569 65.8321C97.7984 65.9477 98.133 65.651 97.9329 65.2905C97.7328 64.93 97.217 64.5506 96.8237 64.2418Z" fill="#373737"/>
<path d="M98.4897 62.3461C98.2189 62.1081 97.9222 61.7735 97.7221 61.413C97.5219 61.0525 97.0649 61.2785 97.1425 61.5683C97.4461 62.3152 98.0465 63.3966 99.0124 63.1378C99.109 63.1119 99.1797 62.9895 99.1539 62.8929C98.9796 62.629 98.7347 62.4876 98.4897 62.3461Z" fill="#373737"/>
<path d="M46.7685 28.8927C46.4718 28.5581 46.1751 28.2234 45.8784 27.8888C45.5817 27.5542 45.1764 27.9734 45.254 28.2632C45.5577 29.0101 46.3064 30.2588 47.2275 30.2191C47.4207 30.1673 47.4914 30.0448 47.4396 29.8516C47.3361 29.4653 47.0394 29.1307 46.7685 28.8927Z" fill="#373737"/>
<path d="M48.0482 27.1007C47.7773 26.8627 47.372 27.2819 47.6428 27.5199C47.9137 27.7579 48.2811 27.97 48.5519 28.208C48.8228 28.4461 49.0936 28.6841 49.4351 28.7996C49.6801 28.941 50.0147 28.6443 49.8405 28.3804C49.3954 27.8785 48.6605 27.4543 48.0482 27.1007Z" fill="#373737"/>
<path d="M96.085 29.0333C95.7434 28.9177 95.4606 29.4076 95.828 29.6198C96.6594 30.0181 97.6392 30.5838 98.4896 30.6666C98.7087 30.7114 98.9208 30.344 98.7725 30.1767C98.0117 29.6558 96.9164 29.4317 96.085 29.0333Z" fill="#373737"/>
<path d="M96.7166 27.519C97.2962 27.3637 97.8568 27.5241 98.3915 27.5879C98.6106 27.6327 98.6295 27.317 98.507 27.2463C97.9654 26.7703 97.1409 26.7842 96.4647 26.9653C96.0783 27.0689 96.3302 27.6225 96.7166 27.519Z" fill="#373737"/>
</g>
</g>
<defs>
<clipPath id="clip0_176_314">
<rect width="551" height="91" fill="white"/>
</clipPath>
<clipPath id="clip1_176_314">
<rect width="90.5" height="69.7" fill="white" transform="translate(10 23.4229) rotate(-15)"/>
</clipPath>
</defs>
</svg>
