<svg width="86" height="68" viewBox="0 0 86 68" fill="none" xmlns="http://www.w3.org/2000/svg">
<g clip-path="url(#clip0_46_406)">
<path d="M0 22.036C0 18.2327 2.6778 14.9551 6.40479 14.1967L76.4048 -0.0474854C81.3625 -1.05632 86 2.73254 86 7.79186V60C86 64.4183 82.4183 68 78 68H8C3.58172 68 0 64.4183 0 60V22.036Z" fill="#F26522"/>
<g clip-path="url(#clip1_46_406)">
<path d="M47.7534 38.0907C47.5913 38.2505 47.498 38.4714 47.498 38.6982C47.498 38.9243 47.5913 39.146 47.7534 39.3057C47.9156 39.4656 48.1405 39.5576 48.3697 39.5576C48.5989 39.5576 48.8238 39.4657 48.986 39.3057C49.1481 39.146 49.2414 38.9243 49.2414 38.6982C49.2414 38.4713 49.1481 38.2505 48.986 38.0907C48.8238 37.93 48.5989 37.8389 48.3697 37.8389C48.1405 37.8389 47.9156 37.93 47.7534 38.0907Z" fill="white"/>
<path d="M58.0494 31.3995C58.2116 31.2397 58.3048 31.018 58.3048 30.792C58.3048 30.565 58.2116 30.3433 58.0494 30.1844C57.8873 30.0246 57.6624 29.9326 57.4332 29.9326C57.2031 29.9326 56.979 30.0245 56.8169 30.1844C56.6539 30.3443 56.5615 30.5651 56.5615 30.792C56.5615 31.018 56.6539 31.2397 56.8169 31.3995C56.979 31.5593 57.2031 31.6514 57.4332 31.6514C57.6624 31.6514 57.8873 31.5594 58.0494 31.3995Z" fill="white"/>
<path d="M30.4138 30.6094V29.5781H31.3598C31.733 29.8315 32.116 30.0712 32.5058 30.3002V37.3033C32.5058 38.546 33.5313 39.557 34.7917 39.557H44.4474C44.9288 39.557 45.3191 39.1722 45.3191 38.6976C45.3191 38.2231 44.9288 37.8383 44.4474 37.8383H38.0068C37.6681 35.9555 36.1589 34.4675 34.2492 34.1335V31.2182C35.9555 32.0161 37.772 32.5892 39.6269 32.9072L42.7756 33.4469C42.9492 33.4767 43.1222 33.4911 43.2934 33.4911C43.5333 33.4911 43.7694 33.4621 43.9976 33.4078C44.9134 34.8892 46.5684 35.8339 48.37 35.8339C51.1901 35.8339 53.4845 33.5718 53.4845 30.7914C53.4845 28.011 51.19 25.7489 48.3699 25.7489C46.7747 25.7489 45.2978 26.4744 44.3384 27.6874L40.2681 25.4682C39.9696 25.3053 39.7841 24.9953 39.7841 24.659C39.7841 24.1491 40.2048 23.7344 40.7219 23.7344H58.733C59.0717 25.6172 60.5809 27.1051 62.4906 27.4391V34.1335C60.5809 34.4675 59.0717 35.9554 58.733 37.8383H52.2923C51.8109 37.8383 51.4206 38.2231 51.4206 38.6976C51.4206 39.1722 51.8109 39.557 52.2923 39.557H61.948C63.2084 39.557 64.2339 38.546 64.2339 37.3033V24.2694C64.2339 23.0267 63.2084 22.0156 61.948 22.0156H50.4974L46.1445 18.7064C45.0152 17.8478 43.6079 17.375 42.1817 17.375H30.4138V16.8594C30.4138 16.3848 30.0236 16 29.5422 16H21.8717C21.3902 16 21 16.3848 21 16.8594V30.6094C21 31.0839 21.3902 31.4688 21.8717 31.4688H29.5422C30.0236 31.4688 30.4138 31.0839 30.4138 30.6094V30.6094ZM36.2194 37.8382H34.7917C34.4925 37.8382 34.2491 37.5982 34.2491 37.3032V35.8957C35.1955 36.1686 35.9426 36.9052 36.2194 37.8382ZM48.3699 27.4677C50.2288 27.4677 51.7411 28.9587 51.7411 30.7913C51.7411 32.624 50.2288 34.115 48.3699 34.115C47.1921 34.115 46.1096 33.5024 45.5029 32.5398C45.7655 32.2614 45.9776 31.9301 46.1192 31.5559C46.4827 30.5949 46.3012 29.5377 45.7127 28.7477C46.3454 27.9475 47.3181 27.4677 48.3699 27.4677V27.4677ZM61.948 37.8382H60.5203C60.7972 36.9052 61.5443 36.1686 62.4906 35.8957V37.3032C62.4906 37.5982 62.2473 37.8382 61.948 37.8382V37.8382ZM62.4906 24.2694V25.6769C61.5443 25.404 60.7972 24.6674 60.5203 23.7344H61.948C62.2473 23.7344 62.4906 23.9744 62.4906 24.2694V24.2694ZM42.1817 19.0938C43.2247 19.0938 44.2539 19.4396 45.0799 20.0675L47.6425 22.0156H40.7219C39.2436 22.0156 38.0408 23.2014 38.0408 24.659C38.0408 25.6204 38.5709 26.5067 39.4243 26.9722L43.9088 29.4173C44.4564 29.716 44.7044 30.3771 44.4858 30.9552C44.2715 31.5213 43.6779 31.8571 43.0741 31.7535L39.9255 31.2138C37.1385 30.736 34.4458 29.6309 32.1383 28.0178C31.991 27.9148 31.8148 27.8595 31.6342 27.8595H30.4138V19.0938H42.1817ZM28.6705 29.75H22.7433V17.7188H28.6705V29.75Z" fill="white"/>
<path d="M64.7565 44.5317H57.0859C56.6457 44.5317 56.2827 44.8538 56.2236 45.2718C55.0935 44.7265 53.8543 44.4414 52.5739 44.4414C50.1126 44.4414 47.7913 45.5058 46.2056 47.3617L45.3284 48.3883H40.2305C38.56 48.3883 37.201 49.7282 37.201 51.375C37.201 51.6409 37.237 51.8985 37.3034 52.144C36.5001 51.8161 35.7623 51.332 35.129 50.7075L30.8918 46.5287C29.7137 45.367 27.7925 45.3625 26.609 46.5186C26.0312 47.083 25.7119 47.8355 25.71 48.6374C25.7081 49.4394 26.0238 50.1933 26.599 50.7605L31.3344 55.4292C33.6498 57.712 36.7283 58.9692 40.0029 58.9692H56.2143V59.1411C56.2143 59.6156 56.6045 60.0005 57.0859 60.0005H64.7565C65.2379 60.0005 65.6281 59.6156 65.6281 59.1411V45.3911C65.6281 44.9166 65.2379 44.5317 64.7565 44.5317ZM40.0029 57.2505C37.194 57.2505 34.5532 56.172 32.5672 54.2139L27.8317 49.5451C27.5869 49.3038 27.4525 48.9829 27.4534 48.6415C27.4541 48.3001 27.59 47.9798 27.836 47.7396C28.3397 47.2474 29.1575 47.2493 29.659 47.744L33.8963 51.9228C35.4911 53.4956 37.6118 54.3618 39.8675 54.3618H49.7221C50.2036 54.3618 50.5938 53.9769 50.5938 53.5024C50.5938 53.0278 50.2036 52.643 49.7221 52.643H40.2305C39.5213 52.643 38.9443 52.0742 38.9443 51.375C38.9443 50.6758 39.5213 50.1071 40.2305 50.1071H45.7339C45.991 50.1071 46.2349 49.9952 46.4005 49.8013L47.5389 48.469C48.7927 47.0017 50.6279 46.1601 52.574 46.1601C53.8799 46.1601 55.1325 46.5336 56.2143 47.2428V57.2505H40.0029ZM63.8848 58.2817H57.9576V46.2505H63.8848V58.2817Z" fill="white"/>
</g>
</g>
<defs>
<clipPath id="clip0_46_406">
<rect width="86" height="68" fill="white"/>
</clipPath>
<clipPath id="clip1_46_406">
<rect width="44.6286" height="44" fill="white" transform="translate(21 16)"/>
</clipPath>
</defs>
</svg>
