<svg width="86" height="68" viewBox="0 0 86 68" fill="none" xmlns="http://www.w3.org/2000/svg">
<g clip-path="url(#clip0_44_2)">
<path d="M0 22.036C0 18.2327 2.6778 14.9551 6.40479 14.1967L76.4048 -0.0474854C81.3625 -1.05632 86 2.73254 86 7.79186V60C86 64.4183 82.4183 68 78 68H8C3.58172 68 0 64.4183 0 60V22.036Z" fill="#FBF8EF"/>
<g clip-path="url(#clip1_44_2)">
<path d="M43.8594 50.8906C43.8594 51.3653 43.4747 51.75 43 51.75C42.5253 51.75 42.1406 51.3653 42.1406 50.8906C42.1406 50.416 42.5253 50.0312 43 50.0312C43.4747 50.0312 43.8594 50.416 43.8594 50.8906Z" fill="#F26522"/>
<path d="M62.1641 43.1562C62.1641 40.3129 59.8511 38 57.0078 38C54.1645 38 51.8516 40.3129 51.8516 43.1562C51.8516 45.9996 54.1645 48.3125 57.0078 48.3125C59.8511 48.3125 62.1641 45.9996 62.1641 43.1562ZM57.0078 46.5938C55.1125 46.5938 53.5703 45.0516 53.5703 43.1562C53.5703 41.2609 55.1125 39.7188 57.0078 39.7188C58.9031 39.7188 60.4453 41.2609 60.4453 43.1562C60.4453 45.0516 58.9031 46.5938 57.0078 46.5938Z" fill="#F26522"/>
<path d="M57.0078 48.3125C54.8423 48.3125 52.6827 49.2115 51.2117 50.6691C49.2755 48.1245 46.2898 46.5938 43 46.5938C39.8495 46.5938 36.7967 48.0312 34.7886 50.6691C33.3173 49.2118 31.1581 48.3125 28.9922 48.3125C24.6601 48.3125 21 51.8544 21 56.0469V57.7656C21 58.2403 21.3847 58.625 21.8594 58.625H64.1406C64.6153 58.625 65 58.2403 65 57.7656V56.0469C65 51.8544 61.3399 48.3125 57.0078 48.3125ZM22.7188 56.0469C22.7188 52.7859 25.5916 50.0312 28.9922 50.0312C30.8529 50.0312 32.6982 50.8557 33.8406 52.1663C33.0853 53.6252 32.6875 55.2513 32.6875 56.9062H22.7188V56.0469ZM43 48.3125C47.782 48.3125 51.5938 52.1924 51.5938 56.9062H34.4062C34.4062 52.1297 38.2959 48.3125 43 48.3125ZM63.2812 56.9062H53.3125C53.3125 55.2513 52.9147 53.6252 52.1594 52.1663C53.3018 50.8557 55.1471 50.0312 57.0078 50.0312C60.4084 50.0312 63.2812 52.7859 63.2812 56.0469V56.9062Z" fill="#F26522"/>
<path d="M34.1484 43.1562C34.1484 40.3129 31.8355 38 28.9922 38C26.1489 38 23.8359 40.3129 23.8359 43.1562C23.8359 45.9996 26.1489 48.3125 28.9922 48.3125C31.8355 48.3125 34.1484 45.9996 34.1484 43.1562ZM28.9922 46.5938C27.0969 46.5938 25.5547 45.0516 25.5547 43.1562C25.5547 41.2609 27.0969 39.7188 28.9922 39.7188C30.8875 39.7188 32.4297 41.2609 32.4297 43.1562C32.4297 45.0516 30.8875 46.5938 28.9922 46.5938Z" fill="#F26522"/>
<path d="M49.875 39.7188C49.875 35.9278 46.791 32.8438 43 32.8438C39.209 32.8438 36.125 35.9278 36.125 39.7188C36.125 43.5097 39.209 46.5938 43 46.5938C46.791 46.5938 49.875 43.5097 49.875 39.7188ZM43 44.875C40.1567 44.875 37.8438 42.5621 37.8438 39.7188C37.8438 36.8754 40.1567 34.5625 43 34.5625C45.8433 34.5625 48.1562 36.8754 48.1562 39.7188C48.1562 42.5621 45.8433 44.875 43 44.875Z" fill="#F26522"/>
<path d="M49.8009 22.3731C49.6998 22.062 49.4309 21.8354 49.107 21.7884L45.4003 21.2502L43.7406 17.8571C43.5966 17.562 43.2971 17.375 42.9688 17.375C42.6405 17.375 42.3411 17.562 42.1967 17.8567L40.5374 21.2502L36.8307 21.788C36.5067 21.835 36.2378 22.062 36.1368 22.3731C36.0358 22.6843 36.12 23.0257 36.3543 23.254L39.0385 25.8701L38.4051 29.5644C38.3497 29.8866 38.4823 30.2126 38.7471 30.4046C39.0103 30.5959 39.3608 30.6231 39.6522 30.4701L42.9688 28.7261L46.2868 30.4701C46.5762 30.6225 46.927 30.597 47.1918 30.4046C47.4564 30.2122 47.589 29.8866 47.5336 29.564L46.8995 25.8701L49.5833 23.254C49.8176 23.0257 49.9019 22.6843 49.8009 22.3731ZM45.3757 24.9546C45.1733 25.152 45.0807 25.4367 45.1287 25.7153L45.5446 28.1387L43.3686 26.9946C43.1182 26.863 42.8191 26.863 42.5687 26.9946L40.3934 28.1387L40.809 25.7153C40.8566 25.4363 40.764 25.152 40.5616 24.9546L38.8012 23.2389L41.2333 22.8857C41.5146 22.8451 41.7573 22.6679 41.8818 22.4128L42.9688 20.1905L44.0555 22.4128C44.1803 22.6682 44.423 22.8451 44.704 22.8857L47.1365 23.2389L45.3757 24.9546Z" fill="#F26522"/>
<path d="M62.6466 28.8141C62.5455 28.5029 62.2766 28.2763 61.9527 28.2293L59.4414 27.8644L58.3185 25.5884C58.1738 25.295 57.8753 25.1094 57.548 25.1094C57.548 25.1094 57.548 25.1094 57.5477 25.1094C57.2207 25.1094 56.922 25.295 56.7773 25.5884L55.6537 27.8644L53.1421 28.2293C52.8185 28.2763 52.5496 28.5029 52.4485 28.8141C52.3471 29.1253 52.4314 29.4667 52.6657 29.6949L54.4828 31.4671L54.0538 33.968C53.9988 34.2903 54.131 34.6159 54.3959 34.8082C54.6604 35.0006 55.0112 35.0261 55.3006 34.874L57.5477 33.6934L59.7942 34.874C60.0835 35.0261 60.4347 35.0006 60.6992 34.8082C60.9637 34.6162 61.096 34.2903 61.0409 33.968L60.6119 31.4671L62.4294 29.6949C62.6637 29.4667 62.7476 29.1253 62.6466 28.8141V28.8141ZM59.0889 30.552C58.8861 30.7494 58.7938 31.0337 58.8418 31.3123L59.0526 32.5423L57.9479 31.9619C57.6974 31.8303 57.3983 31.8303 57.1482 31.9619L56.0425 32.5426L56.2536 31.3123C56.3013 31.0337 56.209 30.7494 56.0065 30.552L55.1123 29.6798L56.3479 29.5006C56.6279 29.46 56.8699 29.2841 56.9952 29.0306L57.5477 27.9111L58.0999 29.0303C58.2251 29.2841 58.4672 29.46 58.7471 29.5006L59.9828 29.6798L59.0889 30.552Z" fill="#F26522"/>
<path d="M33.4278 28.8141C33.3268 28.5029 33.0579 28.2763 32.7339 28.2293L30.2226 27.8644L29.0997 25.5884C28.955 25.295 28.6566 25.1094 28.3293 25.1094C28.002 25.1094 27.7032 25.295 27.5585 25.5884L26.435 27.8644L23.9233 28.2293C23.5997 28.2763 23.3308 28.5029 23.2298 28.8141C23.1284 29.1253 23.2127 29.4667 23.447 29.6949L25.2641 31.4671L24.8354 33.968C24.78 34.2903 24.9126 34.6159 25.1771 34.8082C25.4417 35.0006 25.7925 35.0261 26.0822 34.874L28.329 33.6934L30.5754 34.874C30.8668 35.0271 31.2173 34.9996 31.4804 34.8082C31.745 34.6162 31.8776 34.2903 31.8222 33.968L31.3932 31.4671L33.2106 29.6949C33.4449 29.4667 33.5288 29.1253 33.4278 28.8141ZM29.8698 30.552C29.6674 30.7494 29.5751 31.0337 29.6227 31.3123L29.8339 32.5423L28.7288 31.9619C28.4787 31.8303 28.1796 31.8303 27.9295 31.9619L26.8234 32.5426L27.0345 31.3123C27.0825 31.0337 26.9899 30.7494 26.7875 30.552L25.8932 29.6798L27.1292 29.5006C27.4088 29.46 27.6509 29.2841 27.7761 29.0306L28.3286 27.9111L28.8808 29.0303C29.0061 29.2841 29.2481 29.46 29.5281 29.5006L30.7637 29.6798L29.8698 30.552Z" fill="#F26522"/>
<path d="M46.766 51.157C46.3692 50.8961 45.8364 51.0066 45.5759 51.4034C45.3151 51.7998 45.4255 52.3326 45.8223 52.5934C46.6169 53.1154 47.252 53.8432 47.6589 54.6979C47.8623 55.1259 48.3746 55.3088 48.804 55.1044C49.2326 54.9006 49.4146 54.3877 49.2108 53.9593C48.669 52.8207 47.8234 51.8515 46.766 51.157V51.157Z" fill="#F26522"/>
</g>
</g>
<defs>
<clipPath id="clip0_44_2">
<rect width="86" height="68" fill="white"/>
</clipPath>
<clipPath id="clip1_44_2">
<rect width="44" height="44" fill="white" transform="translate(21 16)"/>
</clipPath>
</defs>
</svg>
