<svg width="86" height="68" viewBox="0 0 86 68" fill="none" xmlns="http://www.w3.org/2000/svg">
<g clip-path="url(#clip0_178_192)">
<path d="M0 22.036C0 18.2327 2.6778 14.9551 6.40479 14.1967L76.4048 -0.0474854C81.3625 -1.05632 86 2.73254 86 7.79186V60C86 64.4183 82.4183 68 78 68H8C3.58172 68 0 64.4183 0 60V22.036Z" fill="#F26522"/>
<g clip-path="url(#clip1_178_192)">
<path d="M57.5997 44.2237C56.6039 43.2279 54.9839 43.2275 53.9881 44.2237L50.891 47.3204C42.0461 46.8069 34.8983 39.6587 34.3844 30.8142L36.8897 28.3084C37.8855 27.3127 37.8855 25.6931 36.8897 24.6973L30.3813 18.1884C29.899 17.7057 29.2575 17.4404 28.5755 17.4404C27.8935 17.4404 27.252 17.7062 26.7697 18.1884L22.628 22.3301C21.6244 23.3338 21.0858 24.7224 21.1496 26.1401C21.5584 35.1579 25.2984 43.6398 31.6819 50.0229C38.065 56.4064 46.5464 60.1464 55.5642 60.5551C55.6403 60.5587 55.7165 60.5604 55.7921 60.5604C57.1302 60.5604 58.4247 60.0271 59.3746 59.0772L64.1081 54.3437C65.1039 53.3479 65.1039 51.7279 64.1081 50.7321L57.5997 44.2237ZM62.8638 53.0993L58.1303 57.8329C57.4751 58.4876 56.5665 58.8418 55.6443 58.7969C47.0661 58.4084 38.9982 54.8505 32.9267 48.7785C26.8551 42.7065 23.2964 34.6387 22.9079 26.0609C22.8661 25.1356 23.2176 24.2296 23.8723 23.5749L28.0145 19.4327C28.1641 19.2827 28.3634 19.2004 28.5755 19.2004C28.7876 19.2004 28.9869 19.2831 29.1365 19.4327L35.6454 25.9412C35.9547 26.2505 35.9547 26.7543 35.6454 27.0637L32.8646 29.8445C32.6917 30.0174 32.5984 30.2545 32.6077 30.4987C32.9742 40.5611 41.1437 48.7306 51.2065 49.0971C51.452 49.1046 51.6878 49.0126 51.8607 48.8401L55.2329 45.468C55.5422 45.1587 56.046 45.1587 56.3553 45.468L62.8638 51.9765C63.1731 52.2862 63.1731 52.7896 62.8638 53.0989V53.0993Z" fill="white"/>
<path d="M45.6964 30.1514C45.2111 30.1514 44.8173 30.5443 44.8164 31.03C44.8155 31.5158 45.2089 31.9105 45.6951 31.9114C46.8686 31.9136 47.9708 32.3707 48.7997 33.1997C49.6287 34.0286 50.0858 35.1313 50.088 36.3043C50.0889 36.7901 50.4827 37.183 50.968 37.183H50.9694C51.4551 37.1821 51.8489 36.7874 51.848 36.3017C51.8454 34.6596 51.2048 33.1161 50.044 31.9558C48.8838 30.7951 47.3402 30.1544 45.6982 30.1518H45.6968L45.6964 30.1514Z" fill="white"/>
<path d="M55.3729 36.3041C55.3729 36.7899 55.7671 37.1837 56.2529 37.1837C56.7386 37.1837 57.1329 36.7894 57.1324 36.3032C57.1307 33.2505 55.9405 30.3795 53.7801 28.2195C51.6201 26.0591 48.7491 24.8689 45.6964 24.8672C45.2106 24.8672 44.8164 25.261 44.8164 25.7467C44.8164 26.2325 45.2102 26.6267 45.696 26.6272C48.2792 26.6285 50.708 27.6361 52.5362 29.4639C54.364 31.2921 55.3716 33.7209 55.3729 36.3041Z" fill="white"/>
<path d="M61.5364 37.183C62.0222 37.183 62.4164 36.7888 62.416 36.3026C62.4142 31.8383 60.6744 27.6398 57.5166 24.4824C54.3587 21.325 50.1606 19.5848 45.6964 19.583C45.2106 19.583 44.8164 19.9768 44.8164 20.4626C44.8164 20.9488 45.2102 21.3426 45.696 21.343C49.6907 21.3443 53.447 22.9015 56.2727 25.7267C59.0979 28.5524 60.6546 32.3087 60.6564 36.3034C60.6564 36.7892 61.0506 37.183 61.5364 37.183V37.183Z" fill="white"/>
<path d="M31.6581 41.1428C31.3836 40.742 30.8367 40.639 30.4349 40.9136C30.0337 41.1882 29.9311 41.7355 30.2057 42.1368L33.0142 46.2429C33.1849 46.4919 33.4608 46.6261 33.7415 46.6261C33.9127 46.6261 34.0856 46.5764 34.2374 46.4726C34.6387 46.198 34.7412 45.6506 34.4667 45.2494L31.6581 41.1433V41.1428Z" fill="white"/>
<path d="M29.2971 37.6911C29.0226 37.2898 28.4752 37.1869 28.0739 37.4614C27.6726 37.736 27.5697 38.2833 27.8442 38.6846L28.3736 39.4581C28.5443 39.7072 28.8202 39.8414 29.1009 39.8414C29.272 39.8414 29.445 39.7917 29.5968 39.6878C29.998 39.4133 30.101 38.8659 29.8264 38.4646L29.2971 37.6911Z" fill="white"/>
</g>
</g>
<defs>
<clipPath id="clip0_178_192">
<rect width="86" height="68" fill="white"/>
</clipPath>
<clipPath id="clip1_178_192">
<rect width="44" height="44" fill="white" transform="translate(21 17)"/>
</clipPath>
</defs>
</svg>
