
<svg width="50" height="50" viewBox="0 0 80 80" fill="none" xmlns="http://www.w3.org/2000/svg">
<g clip-path="url(#clip0_46_300)">
<path d="M0 22.036C0 18.2327 2.6778 14.9551 6.40479 14.1967L76.4048 -0.0474854C81.3625 -1.05632 86 2.73254 86 7.79186V60C86 64.4183 82.4183 68 78 68H8C3.58172 68 0 64.4183 0 60V22.036Z" fill="#FBF8EF"/>
<g clip-path="url(#clip1_46_300)">
<path d="M64.9998 18.7973C65.0076 18.0559 64.7194 17.3312 64.2092 16.8091C63.6993 16.2874 63.0196 16 62.2952 16C61.5666 16 60.8918 16.292 60.3952 16.8222L58.5308 18.8135L57.7635 19.6449L49.7194 17.1373C49.4225 17.0447 49.1001 17.1272 48.8808 17.3517L47.1736 19.0985C46.9911 19.2853 46.9025 19.5477 46.9339 19.81C46.9651 20.0724 47.1125 20.3054 47.3336 20.4419L53.4653 24.2285L52.2576 25.5262C48.9839 22.947 44.9444 21.5349 40.7955 21.5349C35.7751 21.5349 31.0551 23.5354 27.5051 27.168C23.9551 30.8005 22 35.6302 22 40.7673C22 45.9046 23.9551 50.7343 27.5051 54.3669C31.0551 57.9995 35.7751 60 40.7955 60C45.8159 60 50.5358 57.9995 54.0858 54.3669C57.6358 50.7343 59.5908 45.9046 59.5908 40.7673C59.5908 39.6425 59.4938 38.5256 59.3045 37.4289C59.2997 37.37 59.2893 37.3122 59.273 37.2564C58.7315 34.2778 57.5079 31.4545 55.6904 29.0388L56.9586 27.803L60.659 34.0772C60.7924 34.3035 61.0201 34.4543 61.2765 34.4863C61.5321 34.5177 61.7892 34.4278 61.9718 34.2409L63.679 32.4942C63.8981 32.2701 63.9788 31.9409 63.8891 31.6376L61.4529 23.4014L64.1964 20.7119C64.7068 20.2115 64.9921 19.5316 64.9998 18.7973ZM35.7258 57.4969C28.7555 55.2807 23.6797 48.6192 23.6797 40.7673C23.6797 38.3963 24.1434 36.1345 24.9815 34.0701C26.0419 34.8437 27.6359 34.9712 29.0926 35.0871C31.6756 35.2925 32.5308 35.5393 32.5048 36.5954C32.4813 37.553 31.4732 38.3538 30.4059 39.2016C28.9146 40.386 27.0586 41.8602 27.6152 44.3559C28.1847 46.9103 30.176 47.0262 31.7762 47.1194C32.7588 47.1765 33.7749 47.2358 34.7002 47.7139C35.7017 48.2314 36.4595 49.1916 36.8339 50.4176C37.2526 51.789 37.3766 54.1067 35.7258 57.4969ZM57.9111 40.7673C57.9112 46.8141 54.9008 52.1546 50.3333 55.303C49.1499 53.7277 49.2651 52.9483 49.3974 52.0608C49.4986 51.3819 49.6133 50.6123 49.26 49.6049C48.8973 48.5707 48.0943 47.4619 46.734 46.1171L46.5502 45.9158C45.6754 44.9585 44.9844 44.2024 44.8503 43.4506C44.763 42.9609 44.8233 42.1143 46.3492 40.4227C46.7465 39.9825 47.1145 39.7631 47.4745 39.752C48.2302 39.7309 49.13 40.6109 49.9215 41.3894C50.9746 42.425 52.1682 43.5986 53.4659 42.814C54.3446 42.2827 54.7966 41.2898 55.2337 40.3296C55.9443 38.7685 56.3865 37.9546 57.7244 38.1972C57.8475 39.0443 57.9111 39.9033 57.9111 40.7673ZM57.3779 36.4386C55.1792 36.38 54.3144 38.2784 53.711 39.6039C53.3669 40.36 53.0419 41.0741 52.6114 41.3344C52.6013 41.3405 52.5966 41.3418 52.5966 41.3418C52.5951 41.3413 52.4745 41.3507 52.1572 41.1212C51.8371 40.8896 51.4719 40.5305 51.0853 40.1502C50.0553 39.1375 48.8913 37.9893 47.4242 38.0341C46.6011 38.0593 45.8241 38.4708 45.1149 39.257C43.5441 40.9983 42.9528 42.3869 43.1978 43.7595C43.4206 45.0079 44.3023 45.9727 45.3233 47.0899L45.5206 47.3061C45.5308 47.3172 45.5413 47.3281 45.5521 47.3388C48.0367 49.7905 47.8977 50.7226 47.7368 51.8019C47.5815 52.8441 47.3938 54.114 48.8904 56.1951C46.4787 57.5254 43.7218 58.2814 40.7953 58.2814C39.6283 58.2813 38.4883 58.1607 37.3861 57.9318C39.1163 54.2034 38.9341 51.5322 38.4371 49.905C37.9261 48.2316 36.8678 46.9086 35.4574 46.1797C34.2197 45.5402 32.9722 45.4675 31.8716 45.4035C30.1402 45.3026 29.5273 45.2051 29.2528 43.9736C28.9559 42.6422 29.8795 41.7955 31.4359 40.5593C32.7036 39.5524 34.1405 38.4111 34.1841 36.6386C34.2062 35.7413 33.9119 34.5414 32.3847 33.9203C31.4817 33.5532 30.3333 33.4618 29.2229 33.3736C27.781 33.2589 26.2965 33.1403 25.7366 32.4492C28.6347 26.9777 34.298 23.2536 40.7955 23.2536C44.4373 23.2536 47.9864 24.448 50.9073 26.6375L49.043 26.5002C48.8013 26.4832 48.5613 26.5734 48.3889 26.7497L46.952 28.22C46.7601 28.4165 46.6728 28.6957 46.7176 28.9696C46.7624 29.2436 46.9339 29.4785 47.1778 29.6002L50.2239 31.1198L51.709 34.2366C51.8279 34.4862 52.0575 34.6616 52.3252 34.7075C52.3715 34.7155 52.4178 34.7193 52.4639 34.7193C52.6848 34.7193 52.899 34.6301 53.0577 34.4676L54.4945 32.9975C54.6669 32.8212 54.7558 32.5769 54.7383 32.3282L54.6042 30.4203C55.9004 32.2311 56.8387 34.2781 57.3779 36.4386ZM63.0344 19.4709L59.9188 22.5252C59.6904 22.749 59.6044 23.0851 59.696 23.3946L62.1356 31.6428L61.5427 32.2494L57.8561 25.9984C57.7245 25.7754 57.5011 25.6254 57.2488 25.5908C56.9957 25.556 56.7422 25.6405 56.5578 25.8202L53.1378 29.1529C52.9561 29.33 52.8613 29.5808 52.8793 29.8368L53.0355 32.0599L52.7026 32.4004L51.6067 30.1005C51.5245 29.9281 51.3884 29.7887 51.2198 29.7047L48.9723 28.5835L49.3051 28.2429L51.4776 28.4027C51.7269 28.4202 51.973 28.3241 52.1461 28.1382L55.4029 24.6386C55.5786 24.4499 55.661 24.1898 55.6271 23.9316C55.5933 23.6733 55.4467 23.4447 55.2287 23.3102L49.1198 19.5378L49.712 18.9319L57.7719 21.4443C58.0769 21.5394 58.4083 21.4495 58.6273 21.2123L59.7478 19.9981L61.6079 18.0114C61.7846 17.8227 62.0287 17.7188 62.2952 17.7188C62.5669 17.7188 62.8316 17.8303 63.0215 18.0246C63.2143 18.2219 63.3233 18.4969 63.3203 18.779C63.3175 19.0472 63.2159 19.2929 63.0344 19.4709Z" fill="#F26522"/>
<path d="M35.2047 26.4814C35.0086 26.0514 34.5089 25.8655 34.0885 26.0662C32.4094 26.8684 30.8938 27.9548 29.5839 29.2952C29.2559 29.6309 29.2559 30.1749 29.5839 30.5106C29.7479 30.6784 29.9628 30.7623 30.1777 30.7623C30.3926 30.7623 30.6076 30.6784 30.7716 30.5106C31.9426 29.3121 33.2977 28.3409 34.799 27.6236C35.2193 27.4228 35.4009 26.9115 35.2047 26.4814Z" fill="#F26522"/>
<path d="M36.8652 26.6562C37.3291 26.6562 37.7051 26.2715 37.7051 25.7969C37.7051 25.3223 37.3291 24.9375 36.8652 24.9375C36.4014 24.9375 36.0254 25.3223 36.0254 25.7969C36.0254 26.2715 36.4014 26.6562 36.8652 26.6562Z" fill="#F26522"/>
</g>
</g>
<defs>
<clipPath id="clip0_46_300">
<rect width="86" height="68" fill="white"/>
</clipPath>
<clipPath id="clip1_46_300">
<rect width="43" height="44" fill="white" transform="translate(22 16)"/>
</clipPath>
</defs>
</svg>