<svg xmlns="http://www.w3.org/2000/svg" data-name="Layer 1" viewBox="0 0 87.73 91.61" x="0px" y="0px" width="20px" height="24px"><title style="" fill="#f26522">019</title><path d="M93.55,60.49l-3.26-10a1.43,1.43,0,0,1,0-.89l3.26-10A5.92,5.92,0,0,0,91.38,33l-8.54-6.21a1.43,1.43,0,0,1-.52-.72L79.06,16a5.92,5.92,0,0,0-5.64-4.1H62.87a1.43,1.43,0,0,1-.84-.27L53.5,5.34a5.92,5.92,0,0,0-7,0L38,11.56a1.42,1.42,0,0,1-.84.27H26.56a5.92,5.92,0,0,0-5.64,4.1L17.67,26a1.42,1.42,0,0,1-.52.72L8.6,32.89a5.92,5.92,0,0,0-2.16,6.63l3.26,10a1.43,1.43,0,0,1,0,.89l-3.26,10A5.92,5.92,0,0,0,8.6,67.13l8.54,6.21a1.42,1.42,0,0,1,.52.72l3.26,10a5.92,5.92,0,0,0,5.64,4.1H37.13a1.43,1.43,0,0,1,.84.27l8.53,6.24a5.92,5.92,0,0,0,7,0L62,88.46a1.43,1.43,0,0,1,.84-.27H73.43a5.92,5.92,0,0,0,5.64-4.1l3.26-10a1.43,1.43,0,0,1,.52-.72l8.54-6.21A5.91,5.91,0,0,0,93.55,60.49ZM86,51.83l3.26,10a1.43,1.43,0,0,1-.52,1.6L80.2,69.64a5.89,5.89,0,0,0-2.16,3l-3.26,10a1.43,1.43,0,0,1-1.36,1H62.87a5.9,5.9,0,0,0-3.49,1.13L50.83,91a1.43,1.43,0,0,1-1.68,0l-8.54-6.21a5.9,5.9,0,0,0-3.49-1.13H26.56a1.43,1.43,0,0,1-1.36-1l-3.26-10a5.9,5.9,0,0,0-2.15-3l-8.54-6.21a1.43,1.43,0,0,1-.52-1.6l3.26-10a5.9,5.9,0,0,0,0-3.67l-3.26-10a1.43,1.43,0,0,1,.52-1.6l8.54-6.21a5.9,5.9,0,0,0,2.16-3l3.26-10a1.43,1.43,0,0,1,1.36-1H37.13a5.9,5.9,0,0,0,3.49-1.13L49.15,9a1.43,1.43,0,0,1,1.69,0l8.54,6.21a5.9,5.9,0,0,0,3.49,1.13H73.43a1.43,1.43,0,0,1,1.36,1l3.26,10a5.89,5.89,0,0,0,2.16,3l8.54,6.21a1.43,1.43,0,0,1,.52,1.6L86,48.15A5.89,5.89,0,0,0,86,51.83Z" transform="translate(-6.12 -4.2)" style="" fill="#f26522"></path><path d="M51.54,47H47.86a5.94,5.94,0,0,1-6-5.19,5.77,5.77,0,0,1,5.74-6.34H59.35a2.85,2.85,0,1,0,0-5.69H53.16V25.39a2.85,2.85,0,0,0-5.69,0v4.38A11.66,11.66,0,0,0,36.2,40.1,11.47,11.47,0,0,0,47.6,52.67h4a5.94,5.94,0,0,1,6,5.19,5.77,5.77,0,0,1-5.74,6.34H40.13a2.85,2.85,0,0,0,0,5.69h7.33v4.18a2.85,2.85,0,1,0,5.69,0V69.82A11.47,11.47,0,0,0,63.28,57.33,11.68,11.68,0,0,0,51.54,47Z" transform="translate(-6.12 -4.2)" style="" fill="#f26522"></path></svg>